<?xml version="1.0" standalone="no"?>
<!DOCTYPE svg PUBLIC "-//W3C//DTD SVG 20010904//EN"
 "http://www.w3.org/TR/2001/REC-SVG-20010904/DTD/svg10.dtd">
<svg version="1.0" xmlns="http://www.w3.org/2000/svg"
 width="2048.000000pt" height="2048.000000pt" viewBox="0 0 2048.000000 2048.000000"
 preserveAspectRatio="xMidYMid meet">
<metadata>
Created by potrace 1.14, written by Peter Selinger 2001-2017
</metadata>
<g transform="translate(0.000000,2048.000000) scale(0.100000,-0.100000)"
fill="#000000" stroke="none">
<path d="M5038 20208 c-4 -10 -55 -14 -199 -17 -118 -2 -197 -7 -200 -13 -4
-6 -30 -13 -58 -16 -28 -2 -51 -8 -51 -13 0 -5 -36 -9 -79 -9 -61 0 -80 -3
-85 -15 -4 -11 -23 -15 -81 -15 -41 0 -75 -4 -75 -9 0 -5 -13 -12 -30 -16 -16
-4 -30 -11 -30 -16 0 -5 -34 -9 -75 -9 -60 0 -75 -3 -75 -15 0 -11 -11 -15
-40 -15 -22 0 -40 -4 -40 -10 0 -5 -13 -10 -29 -10 -16 0 -36 -7 -45 -15 -9
-9 -34 -15 -65 -15 -39 0 -51 -4 -51 -15 0 -10 -10 -15 -30 -15 -16 0 -30 -4
-30 -10 0 -5 -11 -10 -24 -10 -14 0 -31 -7 -40 -15 -8 -8 -30 -15 -49 -15 -22
0 -37 -6 -41 -15 -3 -8 -17 -15 -31 -15 -14 0 -25 -4 -25 -9 0 -5 -18 -11 -40
-15 -22 -3 -40 -11 -40 -16 0 -6 -12 -10 -26 -10 -14 0 -32 -6 -39 -12 -36
-33 -46 -38 -69 -38 -13 0 -31 -7 -40 -15 -8 -8 -25 -15 -37 -15 -12 0 -32
-11 -45 -25 -13 -14 -32 -25 -43 -25 -11 0 -26 -7 -35 -15 -8 -8 -25 -15 -37
-15 -12 0 -32 -11 -45 -25 -13 -14 -37 -28 -54 -31 -16 -4 -30 -10 -30 -15 0
-5 -7 -9 -16 -9 -8 0 -22 -6 -29 -12 -34 -31 -45 -38 -69 -44 -14 -3 -26 -10
-26 -15 0 -5 -7 -9 -15 -9 -8 0 -15 -4 -15 -10 0 -5 -6 -10 -13 -10 -8 0 -24
-9 -37 -20 -13 -11 -29 -20 -37 -20 -7 0 -13 -4 -13 -10 0 -5 -5 -10 -11 -10
-6 0 -24 -13 -41 -30 -16 -16 -36 -30 -44 -30 -8 0 -14 -4 -14 -10 0 -5 -7
-10 -15 -10 -8 0 -15 -4 -15 -10 0 -5 -6 -10 -13 -10 -8 0 -24 -9 -37 -20 -13
-11 -29 -20 -36 -20 -7 0 -16 -9 -19 -20 -3 -11 -17 -23 -31 -26 -13 -3 -24
-10 -24 -14 0 -5 -10 -12 -22 -16 -12 -3 -38 -24 -58 -45 -20 -22 -43 -39 -52
-39 -9 0 -20 -9 -23 -20 -3 -11 -17 -23 -31 -26 -13 -3 -24 -12 -24 -20 0 -8
-10 -14 -25 -14 -17 0 -25 -6 -25 -17 0 -19 -46 -63 -66 -63 -7 0 -14 -10 -16
-22 -2 -15 -11 -24 -25 -26 -13 -2 -23 -10 -23 -18 0 -8 -6 -14 -14 -14 -8 0
-16 -10 -18 -22 -2 -15 -11 -24 -25 -26 -13 -2 -23 -10 -23 -18 0 -8 -7 -14
-15 -14 -8 0 -15 -9 -15 -19 0 -12 -9 -21 -25 -25 -14 -4 -25 -13 -25 -21 0
-8 -7 -15 -15 -15 -8 0 -17 -11 -21 -25 -4 -16 -13 -25 -25 -25 -10 0 -19 -7
-19 -15 0 -8 -6 -15 -14 -15 -8 0 -16 -10 -18 -22 -2 -15 -11 -24 -25 -26 -13
-2 -23 -10 -23 -18 0 -8 -6 -14 -14 -14 -8 0 -16 -10 -18 -22 -2 -15 -11 -24
-25 -26 -13 -2 -23 -9 -23 -16 0 -20 -44 -66 -63 -66 -11 0 -17 -8 -17 -25 0
-15 -6 -25 -14 -25 -8 0 -17 -11 -20 -24 -3 -14 -15 -28 -26 -31 -11 -3 -20
-14 -20 -23 0 -9 -18 -33 -40 -53 -22 -21 -40 -47 -40 -59 0 -11 -7 -23 -15
-26 -8 -3 -17 -14 -20 -24 -3 -11 -15 -22 -26 -25 -12 -4 -19 -15 -19 -31 0
-14 -6 -24 -14 -24 -8 0 -17 -11 -20 -25 -4 -14 -11 -25 -16 -25 -6 0 -10 -7
-10 -15 0 -8 -4 -15 -10 -15 -5 0 -10 -6 -10 -14 0 -8 -13 -28 -30 -44 -16
-17 -30 -38 -30 -47 0 -9 -11 -26 -24 -38 -14 -13 -28 -35 -31 -50 -4 -15 -11
-27 -16 -27 -5 0 -9 -9 -9 -20 0 -11 -4 -20 -10 -20 -5 0 -10 -6 -10 -13 0 -7
-9 -20 -20 -30 -11 -9 -20 -24 -20 -32 0 -8 -4 -15 -10 -15 -5 0 -10 -11 -10
-25 0 -14 -4 -25 -10 -25 -5 0 -13 -12 -16 -27 -4 -15 -12 -33 -18 -40 -30
-34 -36 -43 -36 -58 0 -8 -4 -15 -9 -15 -5 0 -12 -16 -15 -35 -4 -19 -11 -35
-15 -35 -5 0 -12 -11 -15 -25 -4 -14 -11 -25 -16 -25 -6 0 -10 -12 -10 -26 0
-14 -7 -32 -15 -40 -8 -9 -15 -24 -15 -35 0 -10 -4 -19 -10 -19 -5 0 -10 -9
-10 -20 0 -11 -7 -23 -15 -26 -10 -4 -15 -20 -15 -45 0 -21 -4 -39 -10 -39 -5
0 -12 -11 -16 -25 -3 -14 -10 -25 -15 -25 -5 0 -9 -13 -9 -30 0 -20 -5 -30
-15 -30 -11 0 -15 -12 -15 -50 0 -27 -4 -50 -9 -50 -5 0 -12 -13 -16 -30 -4
-16 -11 -30 -16 -30 -5 0 -9 -18 -9 -40 0 -29 -4 -40 -15 -40 -11 0 -15 -12
-15 -50 0 -27 -4 -50 -10 -50 -5 0 -10 -11 -10 -25 0 -14 -7 -28 -15 -31 -11
-5 -15 -22 -15 -65 0 -44 -4 -61 -15 -65 -11 -5 -15 -21 -15 -60 0 -30 -4 -54
-9 -54 -5 0 -11 -18 -15 -40 -3 -22 -11 -40 -16 -40 -6 0 -10 -34 -10 -79 0
-57 -4 -84 -15 -95 -10 -10 -15 -35 -15 -80 0 -36 -4 -66 -9 -66 -5 0 -11 -38
-12 -85 -3 -58 -8 -88 -17 -94 -12 -7 -14 -891 -13 -5312 1 -3892 5 -5305 13
-5310 7 -5 13 -69 16 -183 3 -97 9 -176 13 -176 5 0 9 -24 9 -54 0 -30 5 -56
10 -58 6 -2 13 -44 17 -93 3 -50 11 -93 17 -97 6 -4 12 -41 14 -82 2 -42 8
-76 13 -76 5 0 9 -13 9 -29 0 -16 5 -31 11 -33 6 -2 13 -35 16 -73 4 -44 11
-73 19 -78 8 -5 14 -25 14 -47 0 -22 5 -40 10 -40 6 0 10 -15 10 -34 0 -19 5
-36 11 -38 6 -2 13 -26 17 -53 3 -27 11 -56 19 -63 7 -7 13 -27 13 -43 0 -16
5 -29 10 -29 6 0 10 -12 10 -26 0 -14 7 -32 15 -40 8 -9 15 -27 15 -40 0 -14
7 -32 15 -40 8 -9 15 -29 15 -45 0 -16 5 -29 10 -29 6 0 10 -9 10 -21 0 -11 7
-27 15 -35 8 -9 15 -29 15 -45 0 -16 4 -29 10 -29 5 0 12 -11 16 -25 3 -14 10
-25 15 -25 5 0 9 -13 9 -30 0 -20 5 -30 15 -30 10 0 15 -10 15 -34 0 -21 6
-36 15 -40 8 -3 15 -15 15 -26 0 -11 5 -20 10 -20 6 0 10 -7 10 -16 0 -8 7
-22 15 -30 8 -9 15 -24 15 -35 0 -11 11 -30 25 -43 14 -14 25 -34 25 -50 0
-16 5 -26 15 -26 9 0 15 -9 15 -25 0 -14 4 -25 10 -25 5 0 12 -11 16 -25 3
-14 10 -25 15 -25 5 0 9 -7 9 -15 0 -8 5 -15 10 -15 6 0 10 -6 10 -14 0 -8 6
-21 14 -28 7 -8 17 -24 20 -36 4 -12 12 -22 17 -22 5 0 9 -9 9 -20 0 -12 11
-31 24 -43 13 -12 26 -32 30 -44 4 -13 12 -23 17 -23 5 0 9 -9 9 -20 0 -11 7
-20 15 -20 8 0 15 -9 15 -19 0 -10 7 -21 15 -25 8 -3 15 -11 15 -18 0 -8 9
-20 20 -28 11 -8 20 -20 20 -26 0 -7 13 -26 30 -42 16 -17 30 -35 30 -41 0 -6
4 -11 9 -11 5 0 12 -11 15 -25 4 -14 13 -25 21 -25 8 0 15 -7 15 -15 0 -8 5
-15 10 -15 6 0 10 -5 10 -10 0 -12 15 -32 42 -58 10 -9 18 -20 18 -25 0 -12
27 -37 39 -37 6 0 11 -5 11 -11 0 -7 16 -26 35 -45 19 -18 35 -37 35 -43 0 -5
74 -84 165 -175 91 -90 165 -169 165 -175 0 -6 5 -11 11 -11 6 0 44 -34 85
-75 41 -41 79 -75 84 -75 5 0 23 -14 38 -30 16 -17 34 -30 41 -30 6 0 11 -7
11 -15 0 -8 9 -15 19 -15 11 0 23 -9 26 -20 3 -11 17 -23 31 -26 13 -3 24 -12
24 -20 0 -8 7 -14 15 -14 8 0 15 -4 15 -10 0 -5 7 -10 15 -10 8 0 15 -7 15
-15 0 -8 9 -15 19 -15 10 0 21 -7 25 -15 3 -8 10 -15 16 -15 6 0 22 -11 36
-25 14 -14 29 -25 35 -25 5 0 20 -11 33 -25 13 -14 28 -25 35 -25 6 0 11 -4
11 -9 0 -5 10 -13 22 -17 12 -3 28 -13 36 -20 7 -8 20 -14 28 -14 8 0 14 -4
14 -10 0 -5 7 -10 15 -10 8 0 15 -7 15 -15 0 -8 9 -15 20 -15 12 0 31 -11 44
-25 13 -14 32 -25 44 -25 11 0 22 -7 26 -15 3 -8 17 -15 31 -15 16 0 25 -6 25
-15 0 -8 7 -15 15 -15 8 0 15 -4 15 -10 0 -5 11 -10 25 -10 16 0 25 -6 25 -15
0 -9 9 -15 25 -15 14 0 25 -4 25 -10 0 -5 11 -12 25 -16 14 -3 25 -10 25 -15
0 -5 11 -9 24 -9 13 0 26 -7 30 -15 3 -8 17 -15 31 -15 14 0 25 -4 25 -10 0
-5 11 -12 25 -16 14 -3 25 -10 25 -15 0 -5 11 -9 24 -9 13 0 26 -7 30 -15 3
-8 17 -15 31 -15 14 0 25 -4 25 -9 0 -5 13 -12 30 -16 17 -4 30 -11 30 -16 0
-5 9 -9 21 -9 11 0 27 -7 35 -15 9 -8 29 -15 45 -15 16 0 29 -4 29 -9 0 -5 11
-12 25 -15 14 -4 25 -11 25 -16 0 -6 16 -10 36 -10 19 0 42 -7 50 -15 9 -8 24
-15 35 -15 10 0 19 -4 19 -9 0 -5 18 -11 40 -15 22 -3 40 -11 40 -16 0 -6 16
-10 36 -10 19 0 42 -7 50 -15 9 -8 29 -15 45 -15 16 0 29 -4 29 -9 0 -5 23
-12 50 -16 28 -4 50 -11 50 -16 0 -5 22 -9 49 -9 27 0 51 -5 53 -11 2 -5 22
-13 46 -16 23 -3 42 -9 42 -13 0 -4 29 -11 65 -15 36 -3 65 -11 65 -16 0 -5
31 -9 69 -9 38 0 71 -4 73 -10 2 -5 31 -13 66 -16 34 -4 62 -10 62 -15 0 -4
54 -10 120 -14 66 -4 120 -11 120 -16 0 -5 60 -9 134 -9 96 0 135 -3 138 -12
3 -9 681 -13 2986 -16 1686 -3 2982 -8 2982 -13 0 -5 970 -9 2235 -9 1229 0
2235 4 2235 8 0 5 55 12 123 16 67 3 124 11 125 16 2 6 43 10 93 10 49 0 89 4
89 9 0 5 38 12 85 16 47 4 85 10 85 14 0 5 26 11 57 14 32 3 59 11 61 17 2 5
28 10 58 10 30 0 54 4 54 9 0 5 29 13 65 16 36 4 65 11 65 15 0 5 18 11 40 15
22 4 40 11 40 16 0 5 20 9 45 9 25 0 45 4 45 10 0 5 18 13 40 16 22 4 40 10
40 14 0 4 18 10 40 14 22 3 40 11 40 16 0 6 18 10 40 10 22 0 40 4 40 10 0 5
16 12 35 16 19 3 35 10 35 15 0 5 9 9 19 9 11 0 26 7 35 15 8 8 26 15 40 15
14 0 26 4 26 9 0 5 18 11 40 15 22 3 40 11 40 16 0 6 9 10 20 10 11 0 23 7 26
15 4 8 17 15 30 15 13 0 24 4 24 9 0 5 14 12 30 16 17 4 30 11 30 16 0 5 11 9
24 9 14 0 31 7 40 15 8 8 24 15 35 15 12 0 21 5 21 10 0 6 7 10 15 10 9 0 18
7 21 15 4 8 17 15 30 15 15 0 24 6 24 15 0 9 9 15 25 15 14 0 25 4 25 9 0 5
11 12 25 15 14 4 25 11 25 16 0 6 11 10 25 10 14 0 28 7 31 15 4 8 12 15 20
15 8 0 14 5 14 10 0 6 9 10 20 10 11 0 23 6 26 14 3 8 16 17 30 20 13 4 24 11
24 16 0 6 7 10 15 10 8 0 15 5 15 10 0 6 6 10 14 10 8 0 21 6 28 14 8 7 24 17
36 20 12 4 22 12 22 17 0 5 7 9 15 9 8 0 15 5 15 10 0 6 7 10 15 10 8 0 15 6
15 14 0 8 11 17 25 20 14 4 25 11 25 16 0 6 7 10 15 10 8 0 15 5 15 10 0 6 7
10 15 10 8 0 15 7 15 15 0 9 9 15 25 15 16 0 25 6 25 15 0 8 5 15 11 15 6 0
17 6 24 13 33 29 45 37 53 37 5 0 18 11 28 25 10 14 24 25 31 25 7 0 13 7 13
15 0 8 7 15 15 15 8 0 25 11 39 25 14 14 30 25 36 25 5 0 10 7 10 15 0 8 7 15
15 15 8 0 15 5 15 11 0 12 25 39 37 39 11 0 43 37 43 50 0 6 5 10 11 10 6 0
24 13 41 30 16 16 33 30 38 30 5 0 12 9 15 20 3 11 13 20 21 20 8 0 14 6 14
14 0 8 9 17 19 21 11 3 23 15 26 26 4 10 13 19 21 19 8 0 14 6 14 14 0 8 9 18
20 21 11 3 20 10 20 15 0 5 14 22 30 38 17 17 30 35 30 41 0 6 5 11 11 11 14
0 69 55 69 69 0 6 7 11 15 11 8 0 15 7 15 15 0 8 7 15 15 15 8 0 15 5 15 10 0
6 18 29 40 51 22 22 40 46 40 52 0 7 11 21 25 31 14 10 25 23 25 28 0 5 6 16
13 23 29 33 37 45 37 55 0 5 7 10 15 10 8 0 15 7 15 15 0 8 4 15 10 15 5 0 12
11 16 25 3 14 10 25 15 25 5 0 9 7 9 15 0 8 7 15 15 15 8 0 15 7 15 15 0 8 4
15 10 15 5 0 12 10 15 23 4 13 17 31 31 41 13 11 24 29 24 42 0 15 6 24 15 24
9 0 15 9 15 25 0 14 5 25 10 25 6 0 10 7 10 15 0 8 7 15 15 15 9 0 15 9 15 25
0 16 6 25 15 25 8 0 15 7 15 15 0 8 5 15 10 15 6 0 10 11 10 25 0 16 6 25 15
25 9 0 15 9 15 24 0 13 7 26 15 30 8 3 15 12 15 21 0 8 5 15 10 15 6 0 10 9
10 19 0 10 7 21 15 25 8 3 15 17 15 31 0 14 4 25 10 25 5 0 12 11 16 25 3 14
10 25 15 25 5 0 9 11 9 24 0 13 7 26 15 30 8 3 15 17 15 31 0 14 4 25 10 25 5
0 12 11 16 25 3 14 10 25 15 25 5 0 9 11 9 25 0 14 4 25 10 25 5 0 13 18 16
39 4 22 13 42 20 45 8 3 14 12 14 21 0 8 5 15 10 15 6 0 10 16 10 35 0 19 4
35 9 35 5 0 12 14 16 30 4 17 11 30 16 30 5 0 9 11 9 24 0 14 7 31 15 40 8 8
15 31 15 50 0 20 4 36 10 36 5 0 13 18 16 40 4 22 10 40 14 40 5 0 11 18 15
40 4 22 11 40 16 40 5 0 9 18 9 39 0 22 5 41 11 43 5 2 13 22 16 46 3 23 9 42
13 42 5 0 11 23 15 50 4 28 11 50 16 50 5 0 9 25 9 55 0 30 4 55 9 55 5 0 12
23 16 50 4 28 11 50 15 50 5 0 11 38 15 85 4 47 11 85 16 85 5 0 9 33 9 74 0
41 4 76 9 78 5 1 13 44 17 93 4 50 12 93 18 97 14 9 8 9191 -5 9196 -13 5 -12
302 1 302 6 0 10 28 10 65 0 36 -4 65 -10 65 -6 0 -10 213 -12 567 -2 442 -6
567 -15 571 -10 3 -13 40 -13 143 0 76 -4 139 -9 139 -4 0 -11 27 -15 60 -4
33 -11 60 -16 60 -6 0 -10 36 -10 80 0 62 -3 82 -15 86 -11 5 -15 24 -15 80 0
41 -4 74 -9 74 -5 0 -12 14 -16 30 -4 17 -11 30 -16 30 -5 0 -9 29 -9 65 0 51
-3 65 -15 65 -12 0 -15 13 -15 55 0 30 -4 55 -9 55 -5 0 -12 11 -15 25 -4 14
-11 25 -16 25 -6 0 -10 20 -10 44 0 26 -6 51 -15 60 -8 8 -15 31 -15 50 0 20
-4 36 -9 36 -5 0 -12 11 -15 25 -4 14 -11 25 -16 25 -6 0 -10 18 -10 40 0 27
-5 43 -15 46 -8 4 -15 17 -15 30 0 13 -4 24 -10 24 -5 0 -10 11 -10 24 0 14
-7 31 -15 40 -8 8 -15 31 -15 50 0 25 -4 36 -15 36 -8 0 -15 7 -15 15 0 8 -4
15 -10 15 -5 0 -10 11 -10 25 0 14 -7 28 -15 31 -9 4 -15 19 -15 40 0 22 -6
37 -15 40 -8 4 -15 12 -15 20 0 8 -4 14 -10 14 -5 0 -10 11 -10 24 0 14 -7 31
-15 40 -8 8 -15 23 -15 34 0 11 -11 28 -25 38 -16 12 -25 29 -25 46 0 18 -5
28 -15 28 -9 0 -15 9 -15 24 0 14 -7 31 -15 40 -8 8 -15 19 -15 25 0 6 -4 11
-10 11 -5 0 -10 11 -10 25 0 16 -6 25 -15 25 -8 0 -15 9 -15 20 0 10 -11 30
-25 44 -14 14 -25 31 -25 39 0 8 -9 24 -20 37 -11 13 -20 29 -20 36 0 7 -9 16
-20 19 -13 4 -20 15 -20 31 0 14 -6 24 -14 24 -8 0 -18 10 -22 23 -4 12 -15
29 -25 38 -11 9 -19 24 -19 33 0 9 -18 34 -39 55 -21 21 -42 48 -46 60 -3 12
-11 21 -16 21 -5 0 -9 6 -9 14 0 7 -11 21 -24 32 -14 10 -27 28 -31 41 -3 13
-12 23 -20 23 -8 0 -15 6 -15 13 0 7 -9 19 -20 27 -11 8 -20 20 -20 27 0 7 -7
13 -15 13 -8 0 -15 7 -15 15 0 8 -7 15 -15 15 -8 0 -15 7 -15 15 0 8 -4 15
-10 15 -5 0 -12 11 -16 25 -3 14 -11 25 -16 25 -13 0 -38 26 -38 39 0 6 -7 11
-15 11 -8 0 -15 5 -15 11 0 14 -25 39 -39 39 -6 0 -11 7 -11 15 0 8 -7 15 -15
15 -8 0 -15 5 -15 11 0 14 -25 39 -39 39 -6 0 -11 7 -11 15 0 8 -7 15 -15 15
-8 0 -15 5 -15 11 0 14 -25 39 -39 39 -6 0 -11 7 -11 15 0 8 -7 15 -15 15 -8
0 -15 5 -15 11 0 14 -25 39 -39 39 -6 0 -11 6 -11 14 0 8 -11 17 -25 20 -16 4
-25 13 -25 26 0 11 -7 20 -15 20 -8 0 -15 6 -15 14 0 8 -11 17 -25 20 -16 4
-25 13 -25 25 0 12 -9 21 -25 25 -14 4 -25 11 -25 16 0 6 -7 10 -15 10 -8 0
-15 7 -15 15 0 8 -7 15 -15 15 -8 0 -15 5 -15 10 0 6 -6 10 -14 10 -8 0 -33
18 -55 40 -22 22 -45 40 -51 40 -5 0 -10 6 -10 14 0 8 -11 17 -25 20 -14 4
-25 11 -25 16 0 6 -7 10 -15 10 -8 0 -15 5 -15 10 0 6 -7 10 -15 10 -8 0 -15
7 -15 15 0 8 -11 17 -25 21 -13 3 -27 14 -30 24 -3 11 -20 21 -40 24 -21 4
-35 13 -35 21 0 8 -6 15 -13 15 -7 0 -19 9 -27 20 -8 11 -22 20 -31 20 -9 0
-26 9 -39 20 -13 11 -29 20 -37 20 -7 0 -13 5 -13 10 0 6 -7 10 -15 10 -8 0
-15 5 -15 10 0 6 -7 10 -15 10 -8 0 -23 9 -32 20 -10 11 -25 20 -35 20 -10 0
-18 5 -18 10 0 6 -7 10 -15 10 -8 0 -15 4 -15 9 0 5 -11 12 -25 15 -14 4 -25
10 -25 15 0 5 -13 12 -30 16 -16 4 -30 11 -30 16 0 5 -7 9 -15 9 -8 0 -15 4
-15 10 0 5 -15 12 -34 16 -19 3 -37 12 -40 20 -3 8 -12 14 -21 14 -8 0 -15 5
-15 10 0 6 -9 10 -21 10 -11 0 -27 7 -35 15 -9 8 -26 15 -40 15 -13 0 -24 5
-24 10 0 6 -7 10 -15 10 -9 0 -18 7 -21 15 -4 9 -19 15 -39 15 -20 0 -35 6
-39 15 -3 8 -17 15 -31 15 -14 0 -25 4 -25 9 0 5 -11 12 -25 15 -14 4 -25 11
-25 16 0 6 -16 10 -36 10 -19 0 -42 7 -50 15 -9 8 -29 15 -45 15 -16 0 -29 5
-29 10 0 6 -7 10 -15 10 -8 0 -15 7 -15 15 0 11 -12 15 -50 15 -27 0 -50 4
-50 10 0 5 -18 13 -40 16 -22 4 -40 10 -40 15 0 5 -11 9 -25 9 -14 0 -28 7
-31 15 -5 11 -22 15 -66 15 -39 0 -64 5 -74 15 -9 8 -24 15 -35 15 -10 0 -19
5 -19 10 0 6 -22 10 -50 10 -38 0 -50 4 -50 15 0 12 -14 15 -70 15 -38 0 -70
4 -70 9 0 5 -18 12 -40 16 -22 4 -40 11 -40 16 0 5 -36 9 -79 9 -57 0 -84 4
-95 15 -11 11 -40 15 -120 15 -58 0 -106 4 -106 9 0 4 -33 12 -72 16 -40 3
-75 10 -78 15 -3 5 -1755 10 -3895 13 -2908 3 -3890 7 -3893 16 -6 17 -2739
16 -2744 -1z m5202 -1786 c0 -5 129 -12 288 -16 163 -4 288 -11 290 -17 2 -5
21 -9 43 -9 21 0 39 -4 39 -9 0 -5 71 -12 157 -16 112 -5 161 -11 171 -21 8
-9 36 -14 73 -14 33 0 59 -4 59 -10 0 -5 23 -10 50 -10 28 0 50 -4 50 -10 0
-5 18 -13 40 -16 22 -4 40 -10 40 -14 0 -5 29 -12 65 -15 36 -4 65 -11 65 -16
0 -5 14 -9 30 -9 17 0 30 -4 30 -9 0 -5 23 -12 52 -16 28 -4 58 -14 66 -21 8
-9 35 -14 68 -14 30 0 54 -4 54 -10 0 -5 9 -10 21 -10 11 0 27 -7 35 -15 9 -9
34 -15 60 -15 24 0 44 -4 44 -10 0 -5 11 -12 25 -16 14 -3 25 -10 25 -15 0 -5
23 -9 50 -9 28 0 50 -4 50 -9 0 -5 12 -12 27 -16 15 -3 31 -11 34 -17 4 -6 30
-13 58 -16 28 -2 51 -8 51 -13 0 -5 5 -9 11 -9 6 0 17 -7 25 -15 9 -8 27 -15
40 -15 14 0 32 -7 40 -15 9 -8 29 -15 45 -15 16 0 29 -4 29 -10 0 -5 11 -10
25 -10 16 0 25 -6 25 -15 0 -9 9 -15 25 -15 14 0 25 -4 25 -9 0 -5 14 -12 30
-16 17 -4 30 -11 30 -16 0 -5 11 -9 25 -9 14 0 25 -4 25 -9 0 -5 11 -12 25
-15 14 -4 25 -11 25 -16 0 -5 18 -13 40 -16 22 -4 40 -10 40 -15 0 -5 5 -9 11
-9 6 0 17 -7 25 -15 9 -8 26 -15 39 -15 12 0 25 -7 29 -15 3 -8 12 -15 21 -15
8 0 15 -4 15 -10 0 -5 11 -10 25 -10 16 0 25 -6 25 -15 0 -8 7 -15 15 -15 8 0
15 -4 15 -10 0 -5 11 -12 25 -16 14 -3 25 -10 25 -15 0 -5 5 -9 11 -9 6 0 17
-7 25 -15 9 -8 24 -15 35 -15 11 0 30 -11 43 -25 13 -14 31 -25 40 -25 9 0 27
-11 39 -24 13 -14 35 -28 50 -31 15 -4 27 -11 27 -16 0 -5 9 -9 19 -9 10 0 21
-7 25 -15 3 -8 12 -15 21 -15 8 0 15 -7 15 -15 0 -8 9 -15 21 -15 11 0 35 -15
52 -34 18 -18 42 -36 55 -40 12 -4 22 -12 22 -17 0 -5 5 -9 11 -9 6 0 24 -13
41 -30 16 -16 36 -30 44 -30 8 0 14 -4 14 -10 0 -5 7 -10 15 -10 8 0 15 -7 15
-15 0 -8 5 -15 10 -15 10 0 22 -8 55 -37 7 -7 16 -13 19 -13 3 0 19 -13 36
-30 17 -16 37 -30 45 -30 7 0 17 -9 20 -20 3 -11 17 -23 31 -26 13 -3 24 -12
24 -20 0 -8 5 -14 11 -14 14 0 39 -25 39 -39 0 -6 7 -11 15 -11 8 0 15 -7 15
-15 0 -8 5 -15 10 -15 14 0 70 -55 70 -69 0 -6 5 -11 10 -11 6 0 22 -11 36
-25 14 -14 31 -25 39 -25 8 0 17 -11 21 -25 3 -14 12 -25 20 -25 16 0 144
-127 144 -144 0 -6 11 -20 25 -30 14 -10 25 -25 25 -32 0 -8 5 -14 11 -14 14
0 39 -25 39 -39 0 -6 7 -11 15 -11 8 0 15 -5 15 -10 0 -11 14 -31 38 -53 52
-49 92 -93 92 -102 0 -9 40 -45 50 -45 6 0 10 -4 10 -10 0 -5 18 -28 40 -50
22 -22 40 -46 40 -54 0 -8 9 -17 19 -21 11 -3 23 -16 27 -28 4 -12 17 -32 30
-44 13 -12 24 -28 24 -35 1 -7 14 -24 30 -38 17 -13 30 -32 30 -41 0 -10 9
-21 20 -24 11 -3 20 -13 20 -20 0 -8 14 -28 30 -45 17 -17 30 -40 30 -50 0
-11 7 -20 15 -20 8 0 15 -7 15 -15 0 -8 4 -15 10 -15 5 0 12 -11 16 -25 3 -14
10 -25 15 -25 5 0 9 -5 9 -11 0 -6 14 -24 30 -41 17 -16 30 -40 30 -54 0 -13
5 -24 10 -24 6 0 10 -7 10 -15 0 -8 7 -15 15 -15 10 0 15 -10 15 -30 0 -16 4
-30 10 -30 5 0 12 -11 16 -25 3 -14 10 -25 15 -25 5 0 9 -5 9 -10 0 -12 15
-32 43 -58 9 -9 17 -27 17 -39 0 -13 5 -23 10 -23 6 0 10 -7 10 -15 0 -8 7
-15 15 -15 9 0 15 -9 15 -25 0 -14 4 -25 9 -25 5 0 12 -13 16 -30 4 -16 11
-30 16 -30 5 0 9 -11 9 -25 0 -16 6 -25 15 -25 9 0 15 -9 15 -25 0 -14 4 -25
9 -25 5 0 12 -13 16 -30 4 -16 11 -30 16 -30 5 0 9 -11 9 -25 0 -14 4 -25 10
-25 5 0 12 -15 16 -34 3 -19 12 -37 20 -40 8 -3 14 -17 14 -31 0 -14 5 -25 10
-25 6 0 10 -7 10 -15 0 -8 4 -15 10 -15 5 0 13 -18 16 -40 4 -22 10 -40 14
-40 4 0 11 -11 14 -25 4 -14 11 -25 16 -25 6 0 10 -18 10 -40 0 -22 4 -40 10
-40 5 0 12 -17 16 -37 4 -21 11 -41 17 -44 5 -4 12 -27 14 -53 3 -25 10 -46
14 -46 5 0 9 -7 9 -16 0 -8 7 -22 15 -30 8 -9 15 -33 15 -55 0 -21 4 -39 10
-39 5 0 13 -18 16 -40 4 -22 10 -40 15 -40 5 0 9 -12 9 -26 0 -14 7 -32 15
-40 8 -9 15 -29 15 -45 0 -16 4 -29 9 -29 5 0 12 -34 16 -75 4 -41 11 -75 16
-75 5 0 9 -13 9 -29 0 -16 4 -31 10 -33 5 -1 12 -30 16 -63 4 -33 11 -63 17
-66 5 -4 12 -27 14 -53 3 -25 10 -46 14 -46 5 0 9 -27 9 -59 0 -33 5 -61 10
-63 6 -2 14 -51 17 -113 3 -61 10 -113 15 -116 4 -3 11 -42 15 -87 3 -45 10
-82 14 -82 5 0 9 -72 9 -159 0 -118 3 -160 12 -163 19 -7 19 -889 1 -895 -10
-4 -13 -37 -13 -124 0 -65 -4 -119 -9 -119 -4 0 -11 -52 -13 -116 -3 -64 -10
-119 -15 -123 -6 -3 -13 -35 -16 -71 -3 -35 -10 -66 -16 -68 -6 -2 -11 -31
-11 -68 0 -35 -4 -64 -9 -64 -5 0 -11 -23 -13 -51 -3 -28 -10 -54 -15 -58 -6
-3 -12 -33 -15 -65 -3 -33 -10 -62 -16 -64 -7 -2 -12 -19 -12 -38 0 -19 -4
-34 -9 -34 -5 0 -12 -27 -16 -60 -4 -33 -11 -60 -16 -60 -5 0 -9 -18 -9 -39 0
-22 -7 -46 -15 -55 -8 -8 -15 -26 -15 -40 0 -14 -4 -26 -10 -26 -5 0 -10 -18
-10 -39 0 -22 -6 -46 -13 -53 -8 -7 -16 -36 -19 -63 -4 -27 -11 -51 -17 -53
-6 -2 -11 -15 -11 -28 0 -13 -4 -24 -9 -24 -5 0 -11 -22 -15 -50 -4 -27 -11
-50 -15 -50 -5 0 -12 -18 -16 -40 -4 -22 -11 -40 -16 -40 -5 0 -9 -13 -9 -30
0 -16 -4 -30 -9 -30 -5 0 -12 -14 -16 -30 -4 -16 -11 -30 -16 -30 -5 0 -9 -16
-9 -35 0 -22 -6 -38 -15 -41 -8 -4 -15 -17 -15 -30 0 -13 -4 -24 -10 -24 -5 0
-10 -18 -10 -39 0 -22 -7 -46 -15 -54 -7 -8 -17 -26 -21 -41 -3 -14 -10 -26
-15 -26 -5 0 -9 -11 -9 -25 0 -14 -4 -25 -10 -25 -5 0 -10 -11 -10 -25 0 -14
-7 -28 -15 -31 -9 -4 -15 -19 -15 -40 0 -22 -6 -37 -15 -40 -8 -4 -15 -17 -15
-30 0 -13 -4 -24 -10 -24 -5 0 -10 -11 -10 -25 0 -15 -6 -25 -14 -25 -9 0 -16
-18 -20 -50 -4 -27 -11 -50 -16 -50 -6 0 -10 -9 -10 -20 0 -11 -4 -20 -9 -20
-5 0 -12 -16 -15 -35 -4 -19 -11 -35 -16 -35 -4 0 -11 -14 -15 -30 -4 -17 -11
-30 -16 -30 -5 0 -9 -7 -9 -15 0 -8 -4 -15 -10 -15 -5 0 -10 -11 -10 -24 0
-14 -7 -31 -15 -40 -8 -8 -15 -26 -15 -40 0 -13 -7 -31 -15 -40 -8 -8 -15 -19
-15 -25 0 -6 -4 -11 -10 -11 -5 0 -10 -13 -10 -29 0 -16 -7 -36 -15 -44 -7 -8
-17 -26 -21 -41 -3 -14 -10 -26 -15 -26 -5 0 -9 -9 -9 -20 0 -11 -4 -20 -10
-20 -5 0 -10 -7 -10 -15 0 -9 -7 -18 -15 -21 -8 -4 -15 -17 -15 -29 0 -13 -7
-30 -15 -39 -8 -8 -15 -19 -15 -25 0 -6 -4 -11 -10 -11 -5 0 -10 -10 -10 -23
0 -12 -9 -30 -20 -40 -11 -9 -20 -24 -20 -32 0 -8 -4 -15 -10 -15 -5 0 -10 -7
-10 -15 0 -8 -4 -15 -10 -15 -5 0 -10 -11 -10 -25 0 -15 -6 -25 -14 -25 -8 0
-16 -16 -20 -40 -3 -22 -11 -40 -16 -40 -6 0 -10 -7 -10 -15 0 -8 -4 -15 -10
-15 -5 0 -10 -9 -10 -20 0 -11 -7 -23 -15 -26 -8 -4 -15 -17 -15 -29 0 -23
-23 -55 -39 -55 -5 0 -11 -16 -14 -36 -3 -20 -17 -46 -32 -59 -14 -13 -25 -33
-25 -45 0 -11 -4 -20 -9 -20 -5 0 -12 -11 -15 -25 -4 -14 -10 -25 -15 -25 -5
0 -12 -13 -16 -28 -3 -15 -15 -34 -25 -42 -11 -8 -20 -25 -20 -38 0 -12 -7
-25 -15 -28 -8 -4 -15 -15 -15 -25 0 -11 -7 -22 -15 -25 -8 -4 -15 -12 -15
-20 0 -8 -4 -14 -10 -14 -5 0 -12 -11 -16 -25 -3 -14 -10 -25 -14 -25 -4 0
-11 -11 -14 -25 -4 -14 -11 -25 -16 -25 -6 0 -10 -7 -10 -15 0 -8 -4 -15 -9
-15 -5 0 -12 -11 -15 -25 -4 -14 -10 -25 -15 -25 -5 0 -12 -13 -16 -28 -3 -15
-15 -34 -25 -42 -11 -8 -20 -24 -20 -35 0 -11 -9 -28 -20 -38 -11 -9 -20 -24
-20 -32 0 -8 -4 -15 -10 -15 -5 0 -10 -7 -10 -15 0 -8 -4 -15 -10 -15 -5 0
-10 -9 -10 -20 0 -11 -6 -23 -14 -26 -8 -3 -17 -16 -20 -30 -4 -13 -11 -24
-16 -24 -6 0 -10 -7 -10 -15 0 -8 -4 -15 -10 -15 -5 0 -10 -6 -10 -14 0 -8 -6
-21 -14 -28 -7 -8 -17 -24 -20 -36 -4 -12 -12 -22 -17 -22 -5 0 -9 -7 -9 -15
0 -8 -4 -15 -10 -15 -5 0 -10 -7 -10 -15 0 -8 -7 -15 -15 -15 -9 0 -15 -9 -15
-25 0 -16 -6 -25 -15 -25 -9 0 -15 -9 -15 -25 0 -14 -4 -25 -10 -25 -5 0 -10
-7 -10 -15 0 -8 -6 -15 -14 -15 -8 0 -17 -11 -20 -25 -4 -14 -11 -25 -16 -25
-6 0 -10 -7 -10 -15 0 -8 -4 -15 -10 -15 -5 0 -10 -6 -10 -14 0 -8 -6 -21 -14
-28 -7 -8 -17 -24 -20 -36 -4 -12 -12 -22 -17 -22 -5 0 -9 -7 -9 -15 0 -8 -4
-15 -10 -15 -5 0 -10 -7 -10 -15 0 -8 -6 -15 -14 -15 -8 0 -17 -11 -20 -25 -4
-14 -11 -25 -16 -25 -6 0 -10 -7 -10 -15 0 -8 -4 -15 -9 -15 -5 0 -12 -11 -15
-25 -4 -14 -11 -25 -16 -25 -6 0 -10 -7 -10 -15 0 -8 -7 -15 -15 -15 -8 0 -15
-7 -15 -15 0 -8 -4 -15 -10 -15 -5 0 -10 -6 -10 -14 0 -8 -6 -21 -14 -28 -7
-8 -16 -24 -20 -35 -4 -12 -16 -25 -27 -28 -12 -4 -19 -15 -19 -31 0 -15 -6
-24 -15 -24 -8 0 -15 -7 -15 -15 0 -8 -11 -25 -25 -39 -14 -14 -25 -30 -25
-36 0 -6 -7 -13 -15 -16 -8 -4 -15 -15 -15 -25 0 -11 -7 -22 -15 -25 -8 -4
-15 -10 -15 -15 0 -11 -16 -32 -42 -57 -10 -9 -18 -21 -18 -26 0 -5 -8 -16
-19 -25 -10 -9 -21 -26 -25 -38 -4 -13 -12 -23 -17 -23 -5 0 -9 -7 -9 -15 0
-8 -7 -15 -15 -15 -8 0 -15 -9 -15 -20 0 -12 -11 -31 -25 -44 -14 -13 -25 -28
-25 -35 0 -6 -7 -11 -15 -11 -8 0 -15 -7 -15 -15 0 -8 -4 -15 -10 -15 -5 0
-10 -9 -10 -20 0 -11 -7 -23 -15 -26 -8 -4 -15 -12 -15 -20 0 -8 -7 -14 -15
-14 -8 0 -15 -9 -15 -20 0 -11 -4 -20 -10 -20 -5 0 -10 -6 -10 -13 0 -7 -9
-20 -20 -30 -11 -9 -20 -23 -20 -30 0 -7 -9 -19 -20 -27 -11 -8 -20 -20 -20
-27 0 -7 -6 -13 -14 -13 -8 0 -17 -11 -20 -25 -4 -14 -11 -25 -16 -25 -6 0
-10 -7 -10 -15 0 -8 -4 -15 -10 -15 -5 0 -10 -7 -10 -15 0 -8 -7 -15 -15 -15
-8 0 -15 -7 -15 -15 0 -8 -11 -25 -25 -39 -14 -14 -25 -30 -25 -36 0 -6 -7
-13 -15 -16 -8 -3 -17 -14 -20 -24 -3 -11 -14 -22 -25 -25 -10 -3 -21 -17 -24
-30 -4 -14 -11 -25 -16 -25 -6 0 -10 -7 -10 -15 0 -8 -7 -15 -15 -15 -8 0 -15
-5 -15 -10 0 -10 -8 -22 -37 -55 -7 -7 -13 -18 -13 -23 0 -5 -11 -18 -25 -28
-14 -10 -25 -24 -25 -31 0 -6 -13 -25 -30 -41 -16 -17 -30 -35 -30 -41 0 -6
-4 -11 -10 -11 -5 0 -10 -7 -10 -15 0 -8 -7 -15 -15 -15 -8 0 -15 -8 -15 -19
0 -10 -11 -27 -25 -37 -14 -10 -25 -24 -25 -31 0 -7 -7 -13 -15 -13 -8 0 -15
-7 -15 -15 0 -8 -7 -15 -15 -15 -8 0 -15 -7 -15 -15 0 -8 -4 -15 -9 -15 -5 0
-13 -10 -17 -22 -4 -13 -22 -37 -40 -55 -19 -17 -34 -36 -34 -42 0 -6 -7 -11
-15 -11 -8 0 -15 -7 -15 -15 0 -8 -11 -25 -25 -39 -14 -14 -25 -30 -25 -36 0
-6 -7 -13 -15 -16 -8 -3 -17 -14 -20 -24 -3 -11 -15 -22 -26 -25 -10 -4 -19
-13 -19 -21 0 -8 -7 -14 -15 -14 -8 0 -15 -8 -15 -19 0 -10 -11 -27 -25 -37
-14 -10 -25 -24 -25 -31 0 -7 -6 -13 -14 -13 -8 0 -17 -11 -20 -24 -3 -14 -15
-27 -26 -31 -10 -3 -22 -16 -26 -28 -4 -12 -22 -36 -40 -54 -19 -17 -34 -36
-34 -42 0 -6 -7 -11 -15 -11 -8 0 -15 -7 -15 -15 0 -8 -18 -32 -40 -54 -22
-22 -40 -44 -40 -50 0 -6 -7 -11 -15 -11 -8 0 -15 -5 -15 -11 0 -6 -13 -24
-30 -41 -16 -16 -30 -33 -30 -38 0 -5 -9 -12 -20 -15 -11 -3 -20 -13 -20 -21
0 -8 -6 -14 -14 -14 -8 0 -18 -9 -21 -20 -3 -11 -11 -20 -16 -20 -5 0 -9 -5
-9 -10 0 -6 -11 -21 -25 -34 -14 -13 -25 -28 -25 -35 0 -6 -7 -11 -15 -11 -8
0 -15 -5 -15 -10 0 -12 -10 -25 -52 -70 -16 -15 -28 -32 -28 -35 0 -4 -22 -29
-50 -56 -27 -27 -50 -53 -50 -59 0 -5 -7 -10 -15 -10 -8 0 -15 -7 -15 -15 0
-8 -5 -15 -11 -15 -14 0 -39 -25 -39 -39 0 -6 -7 -11 -15 -11 -8 0 -15 -7 -15
-15 0 -8 -7 -15 -15 -15 -8 0 -15 -7 -15 -15 0 -9 -11 -26 -25 -39 -14 -13
-25 -28 -25 -35 0 -6 -7 -11 -15 -11 -8 0 -15 -5 -15 -11 0 -14 -55 -69 -69
-69 -6 0 -11 -7 -11 -15 0 -8 -4 -15 -10 -15 -5 0 -10 -7 -10 -15 0 -8 -6 -15
-14 -15 -8 0 -17 -9 -21 -19 -3 -11 -15 -23 -26 -26 -10 -4 -19 -13 -19 -21 0
-7 -31 -45 -70 -84 -38 -39 -70 -75 -70 -80 0 -6 -5 -10 -11 -10 -14 0 -39
-25 -39 -39 0 -6 -5 -11 -11 -11 -14 0 -39 -25 -39 -39 0 -6 -7 -11 -15 -11
-8 0 -15 -7 -15 -15 0 -8 -7 -15 -15 -15 -8 0 -15 -7 -15 -15 0 -8 -4 -15 -10
-15 -5 0 -28 -18 -50 -40 -22 -22 -40 -45 -40 -50 0 -6 -7 -10 -15 -10 -8 0
-15 -7 -15 -15 0 -8 -7 -15 -15 -15 -8 0 -15 -5 -15 -11 0 -14 -25 -39 -39
-39 -6 0 -11 -7 -11 -15 0 -8 -7 -15 -15 -15 -8 0 -15 -5 -15 -11 0 -14 -25
-39 -39 -39 -6 0 -11 -7 -11 -15 0 -8 -7 -15 -15 -15 -8 0 -15 -5 -15 -11 0
-13 -25 -39 -38 -39 -5 0 -13 -11 -16 -24 -3 -14 -15 -28 -26 -31 -11 -3 -20
-10 -20 -15 0 -5 -13 -21 -30 -37 -45 -43 -58 -53 -70 -53 -5 0 -10 -7 -10
-15 0 -8 -7 -15 -15 -15 -8 0 -15 -5 -15 -11 0 -14 -25 -39 -39 -39 -6 0 -11
-7 -11 -15 0 -8 -5 -15 -11 -15 -14 0 -39 -25 -39 -39 0 -6 -6 -11 -14 -11 -8
0 -16 -7 -20 -15 -4 -11 -20 -15 -56 -15 -38 0 -50 4 -50 15 0 8 -5 15 -11 15
-9 0 -38 25 -81 68 -4 4 -21 21 -38 37 -36 37 -58 55 -64 55 -10 0 -66 59 -66
70 0 5 -4 10 -10 10 -10 0 -50 36 -50 45 0 7 -15 25 -52 65 -16 15 -28 33 -28
39 0 6 -5 11 -11 11 -14 0 -39 25 -39 39 0 6 -7 11 -15 11 -8 0 -15 5 -15 11
0 14 -25 39 -39 39 -6 0 -11 7 -11 15 0 8 -7 15 -15 15 -8 0 -15 5 -15 11 0
14 -25 39 -39 39 -6 0 -11 7 -11 15 0 8 -7 15 -15 15 -8 0 -15 5 -15 11 0 14
-25 39 -39 39 -6 0 -11 7 -11 15 0 8 -7 15 -15 15 -8 0 -15 5 -15 11 0 14 -55
69 -69 69 -6 0 -11 5 -11 11 0 6 -43 53 -95 105 -52 52 -95 99 -95 105 0 5
-16 25 -35 43 -19 19 -35 39 -35 45 0 6 -7 11 -15 11 -8 0 -15 7 -15 15 0 8
-5 15 -11 15 -14 0 -39 25 -39 39 0 6 -7 11 -15 11 -8 0 -15 7 -15 15 0 8 -7
15 -15 15 -8 0 -15 5 -15 11 0 6 -13 24 -30 41 -16 16 -30 33 -30 38 0 5 -9
12 -20 15 -11 3 -20 12 -20 19 0 17 -34 56 -49 56 -6 0 -11 4 -11 10 0 13 -57
70 -70 70 -5 0 -10 5 -10 10 0 6 -23 33 -50 60 -27 27 -50 54 -50 59 0 12 -59
71 -71 71 -5 0 -9 9 -9 20 0 11 -7 20 -15 20 -8 0 -15 5 -15 11 0 7 -25 36
-55 65 -30 30 -55 58 -55 64 0 5 -22 32 -50 59 -27 27 -50 54 -50 60 0 6 -7
11 -15 11 -8 0 -15 7 -15 15 0 8 -5 15 -11 15 -14 0 -39 25 -39 39 0 6 -6 11
-14 11 -8 0 -17 11 -20 24 -3 14 -15 28 -26 31 -11 3 -20 13 -20 21 0 8 -18
32 -40 54 -22 22 -40 44 -40 49 0 5 -13 23 -30 39 -16 17 -30 33 -30 37 0 10
-28 35 -39 35 -6 0 -11 5 -11 11 0 7 -13 25 -30 41 -16 15 -30 33 -30 38 0 6
-16 26 -35 44 -19 19 -35 38 -35 43 0 5 -8 16 -17 25 -28 26 -43 46 -43 58 0
5 -4 10 -10 10 -5 0 -10 7 -10 15 0 8 -4 15 -10 15 -10 0 -50 36 -50 45 0 6
-11 20 -37 50 -7 7 -13 18 -13 24 0 6 -7 11 -15 11 -8 0 -15 5 -15 11 0 7 -11
22 -25 35 -14 13 -25 28 -25 33 0 6 -11 21 -25 35 -14 14 -25 29 -25 33 0 5
-8 16 -17 25 -24 22 -43 46 -43 53 0 3 -22 27 -49 54 -27 27 -52 58 -56 70 -3
11 -11 21 -16 21 -5 0 -9 7 -9 15 0 9 -7 18 -15 21 -8 4 -15 13 -15 21 0 7
-11 24 -25 37 -14 13 -25 28 -25 35 0 6 -5 11 -11 11 -12 0 -39 25 -39 37 0 5
-8 16 -17 25 -28 26 -43 46 -43 58 0 5 -4 10 -9 10 -5 0 -12 11 -15 25 -4 14
-11 25 -16 25 -6 0 -10 7 -10 15 0 8 -7 15 -15 15 -8 0 -15 7 -15 15 0 8 -4
15 -9 15 -5 0 -12 11 -15 25 -4 14 -11 25 -16 25 -6 0 -10 7 -10 15 0 8 -7 15
-15 15 -8 0 -15 7 -15 15 0 8 -4 15 -10 15 -5 0 -10 7 -10 15 0 8 -14 28 -30
45 -17 17 -30 33 -30 36 0 5 -11 20 -37 49 -7 7 -13 18 -13 23 0 5 -11 18 -25
28 -14 10 -25 24 -25 31 0 6 -6 18 -14 25 -7 8 -17 24 -20 36 -4 12 -12 22
-17 22 -5 0 -9 7 -9 15 0 8 -4 15 -10 15 -5 0 -10 7 -10 15 0 8 -6 15 -14 15
-8 0 -17 11 -20 25 -4 14 -11 25 -16 25 -6 0 -10 5 -10 11 0 7 -11 22 -24 34
-13 12 -27 32 -31 43 -3 12 -11 22 -16 22 -5 0 -9 7 -9 15 0 8 -4 15 -9 15 -5
0 -13 10 -17 23 -4 12 -17 32 -30 44 -13 12 -24 27 -24 33 0 5 -4 10 -10 10
-5 0 -10 9 -10 20 0 11 -7 20 -15 20 -8 0 -15 9 -15 20 0 10 -11 30 -24 43
-13 13 -27 35 -31 48 -4 13 -18 34 -31 46 -13 12 -24 27 -24 33 0 5 -4 10 -10
10 -5 0 -10 9 -10 20 0 11 -7 20 -15 20 -8 0 -15 9 -15 20 0 10 -11 30 -25 44
-14 14 -25 30 -25 36 0 6 -7 13 -15 16 -8 4 -15 14 -15 24 0 9 -11 25 -24 36
-14 10 -27 28 -31 41 -3 13 -10 23 -15 23 -6 0 -10 7 -10 15 0 9 -7 18 -15 21
-8 4 -15 15 -15 25 0 10 -4 19 -10 19 -5 0 -10 7 -10 15 0 8 -7 15 -15 15 -9
0 -15 9 -15 25 0 16 -6 25 -15 25 -8 0 -15 7 -15 15 0 8 -4 15 -10 15 -5 0
-10 11 -10 25 0 14 -7 28 -15 31 -8 3 -17 16 -21 27 -4 12 -15 29 -25 38 -10
8 -21 27 -24 42 -4 15 -11 27 -15 27 -4 0 -11 11 -14 25 -4 14 -11 25 -16 25
-6 0 -10 7 -10 15 0 8 -4 15 -10 15 -5 0 -12 11 -16 25 -3 14 -10 25 -14 25
-4 0 -11 11 -14 25 -4 14 -11 25 -16 25 -6 0 -10 7 -10 15 0 8 -4 15 -9 15 -5
0 -12 11 -15 25 -4 14 -11 25 -16 25 -6 0 -10 7 -10 15 0 9 -7 18 -15 21 -8 4
-15 15 -15 25 0 10 -4 19 -10 19 -5 0 -10 9 -10 20 0 10 -13 33 -30 50 -16 17
-30 40 -30 50 0 11 -4 20 -10 20 -5 0 -12 11 -16 25 -3 14 -10 25 -14 25 -4 0
-11 11 -14 25 -4 14 -11 25 -16 25 -6 0 -10 7 -10 15 0 8 -4 15 -9 15 -5 0
-12 11 -15 25 -4 14 -11 25 -16 25 -6 0 -10 9 -10 20 0 10 -11 30 -23 42 -13
13 -27 36 -31 51 -3 15 -11 27 -16 27 -6 0 -10 11 -10 25 0 14 -7 28 -15 31
-8 4 -15 15 -15 25 0 10 -4 19 -9 19 -5 0 -12 13 -16 30 -4 16 -11 30 -16 30
-5 0 -9 11 -9 25 0 16 -6 25 -15 25 -9 0 -15 9 -15 25 0 14 -4 25 -9 25 -5 0
-12 14 -16 30 -4 17 -11 30 -16 30 -5 0 -11 11 -15 25 -3 14 -10 25 -15 25 -5
0 -9 7 -9 15 0 8 -4 15 -9 15 -5 0 -12 13 -16 30 -4 16 -11 30 -16 30 -5 0 -9
9 -9 20 0 11 -7 23 -15 26 -8 4 -15 17 -15 30 0 13 -4 24 -10 24 -5 0 -10 6
-10 14 0 8 -6 21 -13 28 -8 7 -17 30 -21 51 -4 20 -11 37 -16 37 -6 0 -10 7
-10 15 0 8 -4 15 -9 15 -5 0 -11 18 -15 40 -3 22 -11 40 -16 40 -5 0 -12 11
-16 25 -3 14 -10 25 -15 25 -5 0 -9 11 -9 25 0 14 -4 25 -10 25 -5 0 -10 7
-10 15 0 9 -7 18 -15 21 -9 4 -15 19 -15 40 0 24 -5 34 -15 34 -9 0 -15 9 -15
25 0 14 -4 25 -10 25 -5 0 -10 9 -10 19 0 11 -6 26 -13 33 -8 7 -17 30 -21 51
-4 20 -11 37 -16 37 -6 0 -10 11 -10 25 0 14 -4 25 -10 25 -5 0 -10 11 -10 25
0 14 -7 28 -15 31 -8 4 -15 17 -15 29 0 13 -7 30 -15 39 -8 8 -15 22 -15 30 0
9 -4 16 -9 16 -5 0 -12 16 -15 35 -4 19 -11 35 -16 35 -6 0 -10 11 -10 25 0
14 -7 28 -15 31 -8 4 -15 17 -15 30 0 13 -4 24 -9 24 -5 0 -11 18 -15 40 -3
22 -11 40 -16 40 -6 0 -10 11 -10 25 0 14 -7 28 -15 31 -9 4 -15 19 -15 40 0
19 -4 34 -9 34 -5 0 -11 18 -15 40 -3 22 -10 40 -15 40 -5 0 -11 18 -15 40 -3
22 -11 40 -16 40 -6 0 -10 11 -10 25 0 14 -4 25 -9 25 -4 0 -11 19 -14 41 -3
23 -10 45 -15 48 -6 3 -13 27 -17 54 -4 26 -11 47 -16 47 -5 0 -9 11 -9 25 0
14 -4 25 -10 25 -5 0 -13 18 -16 40 -4 22 -10 40 -15 40 -5 0 -9 13 -9 29 0
16 -7 36 -15 45 -8 8 -15 26 -15 40 0 14 -4 26 -9 26 -5 0 -11 34 -13 76 -2
41 -9 78 -15 82 -6 4 -14 28 -18 55 -4 26 -11 47 -16 47 -5 0 -9 18 -9 40 0
22 -4 40 -9 40 -5 0 -11 30 -13 66 -2 36 -9 68 -15 72 -5 4 -13 36 -16 72 -3
35 -10 66 -16 68 -6 2 -11 30 -11 63 0 32 -4 59 -9 59 -5 0 -11 23 -13 51 -3
28 -10 54 -15 58 -6 3 -12 69 -15 150 -3 99 -8 146 -16 149 -8 2 -12 28 -12
68 0 36 -4 64 -10 64 -7 0 -10 162 -10 465 0 303 3 465 10 465 6 0 10 33 10
79 0 52 4 81 12 83 7 3 13 50 16 144 3 77 9 142 15 145 5 4 12 30 15 58 2 28
8 51 13 51 5 0 9 38 9 85 0 47 4 85 9 85 5 0 13 26 17 58 4 31 11 60 16 63 5
3 12 31 15 62 3 32 10 57 14 57 5 0 9 18 9 40 0 22 4 40 9 40 5 0 12 21 16 47
4 25 13 52 21 60 9 10 14 37 14 84 0 39 4 69 10 69 6 0 10 11 10 25 0 16 6 25
15 25 11 0 15 11 15 41 0 23 7 47 15 55 8 9 15 26 15 40 0 13 5 24 10 24 6 0
10 12 10 26 0 14 7 32 15 40 8 9 15 26 15 39 0 13 5 25 11 27 6 2 14 27 17 56
2 29 8 52 13 52 5 0 9 7 9 15 0 8 4 15 9 15 5 0 12 23 16 50 4 28 11 50 15 50
5 0 11 14 15 30 4 17 11 30 16 30 5 0 9 14 9 30 0 17 4 30 9 30 5 0 13 10 17
22 3 12 13 28 20 36 8 7 14 24 14 38 0 13 5 24 10 24 6 0 10 7 10 15 0 8 4 15
10 15 5 0 13 18 16 40 4 24 12 40 20 40 8 0 14 10 14 25 0 14 5 25 10 25 6 0
10 7 10 16 0 8 7 22 15 30 8 9 15 26 15 40 0 13 4 24 9 24 5 0 12 11 15 25 4
14 11 25 16 25 6 0 10 7 10 15 0 16 12 34 43 63 9 9 17 26 17 37 0 11 9 27 20
35 10 8 22 27 25 42 4 15 11 28 16 28 5 0 11 11 15 25 3 14 10 25 15 25 5 0 9
11 9 25 0 16 6 25 15 25 8 0 15 6 15 14 0 8 7 16 15 20 8 3 15 15 15 26 0 11
5 20 10 20 6 0 10 7 10 15 0 8 5 15 10 15 6 0 10 7 10 15 0 8 9 23 20 32 11
10 20 23 20 30 0 7 5 13 10 13 6 0 10 9 10 20 0 11 7 20 15 20 8 0 15 7 15 15
0 8 4 15 9 15 5 0 12 11 15 25 4 14 11 25 16 25 6 0 10 4 10 10 0 5 13 23 30
40 16 17 30 37 30 45 0 7 9 17 20 20 11 3 20 10 20 15 0 5 14 22 30 38 17 17
30 40 30 51 0 12 6 21 15 21 8 0 15 6 15 14 0 8 7 16 15 20 8 3 15 14 15 25 0
11 9 22 20 26 11 3 23 17 26 31 3 13 11 24 16 24 13 0 38 26 38 39 0 6 7 11
15 11 8 0 15 7 15 15 0 8 7 15 15 15 8 0 15 5 15 10 0 6 23 33 50 60 28 27 50
54 50 60 0 5 7 10 15 10 8 0 15 9 15 19 0 12 9 21 25 25 14 4 25 11 25 17 0
11 10 24 53 69 15 15 27 31 27 34 0 10 34 46 43 46 12 0 37 27 37 39 0 6 5 11
11 11 6 0 24 14 41 30 16 17 33 30 38 30 5 0 11 9 15 19 3 10 17 22 30 25 14
4 25 13 25 21 0 8 5 15 10 15 6 0 44 34 85 75 40 41 79 75 84 75 6 0 11 7 11
15 0 8 5 15 10 15 10 0 19 6 53 36 7 5 20 13 30 17 9 3 17 11 17 17 0 5 9 10
20 10 13 0 22 9 26 25 4 18 13 25 30 25 15 0 24 6 24 15 0 8 5 15 11 15 6 0
24 14 41 30 16 17 36 30 44 30 8 0 14 5 14 10 0 6 5 10 11 10 13 0 39 25 39
38 0 5 11 13 25 16 14 4 25 11 25 16 0 6 7 10 15 10 8 0 15 5 15 10 0 6 7 10
15 10 8 0 15 6 15 14 0 8 11 17 25 20 14 4 25 11 25 16 0 6 7 10 15 10 8 0 15
4 15 9 0 5 11 12 25 15 14 4 25 10 25 15 0 5 14 12 30 16 17 4 30 11 30 16 0
5 9 9 20 9 11 0 20 5 20 10 0 6 7 10 15 10 9 0 18 7 21 15 4 8 15 15 25 15 11
0 22 7 25 15 4 8 12 15 20 15 8 0 14 5 14 10 0 6 9 10 20 10 11 0 23 6 26 14
3 8 16 17 30 20 13 4 24 11 24 16 0 6 7 10 15 10 8 0 15 4 15 9 0 5 11 12 25
15 14 4 25 11 25 16 0 6 11 10 25 10 14 0 28 7 31 15 4 8 15 15 25 15 10 0 19
5 19 10 0 6 14 10 30 10 20 0 30 5 30 15 0 10 14 17 40 21 22 4 40 10 40 15 0
5 7 9 15 9 8 0 15 4 15 9 0 5 18 11 40 15 22 3 40 11 40 16 0 6 11 10 25 10
16 0 25 6 25 15 0 9 9 15 25 15 14 0 25 5 25 10 0 6 11 10 25 10 13 0 28 6 32
14 4 7 28 16 53 19 24 3 46 11 48 16 2 6 10 11 18 11 8 0 14 4 14 9 0 5 25 12
55 16 30 3 55 10 55 15 0 4 11 11 25 14 14 4 25 11 25 16 0 6 23 10 51 10 42
0 56 5 75 25 18 19 33 25 68 25 26 0 51 6 60 15 8 8 22 15 30 15 9 0 16 4 16
9 0 5 27 11 61 13 33 2 64 9 67 16 4 6 31 14 60 18 28 3 52 10 52 15 0 5 16 9
35 9 19 0 35 4 35 9 0 5 29 13 65 16 36 4 65 11 65 16 0 5 13 9 29 9 16 0 36
7 45 15 8 8 32 15 55 15 23 0 41 4 41 9 0 5 34 11 76 13 45 2 78 8 83 16 5 8
56 14 159 19 84 3 152 10 152 15 0 4 20 8 44 8 24 0 46 4 48 10 2 5 116 12
276 16 149 4 272 11 272 16 0 4 45 8 100 8 55 0 100 -4 100 -8z"/>
<path d="M10050 17702 c0 -5 -138 -12 -307 -15 -191 -4 -309 -11 -311 -17 -2
-5 -21 -10 -42 -10 -21 0 -40 -4 -42 -10 -1 -5 -41 -12 -88 -16 -47 -4 -88
-12 -92 -18 -4 -6 -41 -12 -82 -14 -42 -2 -76 -8 -76 -13 0 -5 -18 -9 -39 -9
-22 0 -41 -5 -43 -11 -2 -5 -22 -13 -46 -16 -23 -3 -42 -9 -42 -13 0 -4 -33
-10 -72 -13 -40 -4 -74 -11 -76 -17 -2 -5 -17 -10 -33 -10 -16 0 -29 -4 -29
-9 0 -5 -34 -12 -75 -16 -54 -5 -75 -11 -75 -21 0 -10 -13 -14 -40 -14 -22 0
-40 -4 -40 -10 0 -5 -7 -10 -16 -10 -8 0 -22 -7 -30 -15 -9 -8 -29 -15 -45
-15 -16 0 -29 -4 -29 -9 0 -5 -16 -12 -35 -15 -19 -4 -35 -11 -35 -16 0 -6
-13 -10 -30 -10 -16 0 -30 -4 -30 -10 0 -5 -11 -10 -24 -10 -14 0 -32 -7 -41
-16 -8 -9 -33 -18 -55 -21 -22 -3 -40 -10 -40 -14 0 -5 -5 -9 -11 -9 -6 0 -17
-7 -25 -15 -9 -8 -29 -15 -45 -15 -16 0 -29 -4 -29 -10 0 -5 -11 -12 -25 -16
-14 -3 -25 -10 -25 -15 0 -5 -14 -9 -30 -9 -20 0 -39 -9 -55 -25 -13 -15 -39
-29 -59 -32 -22 -3 -38 -12 -41 -23 -3 -10 -20 -21 -39 -24 -19 -4 -37 -13
-40 -21 -3 -8 -15 -15 -26 -15 -11 0 -20 -4 -20 -10 0 -5 -6 -10 -14 -10 -8 0
-16 -7 -20 -15 -3 -8 -15 -15 -26 -15 -11 0 -20 -4 -20 -9 0 -5 -12 -12 -27
-16 -15 -3 -34 -14 -42 -24 -9 -10 -27 -22 -41 -26 -13 -4 -30 -14 -38 -21 -7
-8 -20 -14 -28 -14 -8 0 -14 -4 -14 -10 0 -5 -7 -10 -15 -10 -8 0 -15 -4 -15
-9 0 -5 -10 -13 -22 -16 -11 -4 -31 -18 -43 -31 -12 -13 -32 -24 -44 -24 -12
0 -21 -6 -21 -15 0 -8 -7 -15 -15 -15 -8 0 -15 -4 -15 -10 0 -5 -11 -12 -25
-16 -14 -3 -25 -10 -25 -15 0 -5 -7 -9 -15 -9 -8 0 -15 -7 -15 -15 0 -9 -9
-15 -25 -15 -16 0 -25 -6 -25 -15 0 -8 -7 -15 -15 -15 -8 0 -15 -4 -15 -10 0
-5 -7 -10 -15 -10 -8 0 -15 -4 -15 -9 0 -5 -10 -13 -22 -17 -13 -4 -37 -21
-54 -39 -16 -18 -40 -36 -52 -39 -12 -4 -22 -14 -22 -22 0 -8 -7 -14 -15 -14
-8 0 -15 -4 -15 -10 0 -5 -7 -10 -15 -10 -8 0 -15 -5 -15 -11 0 -14 -55 -69
-69 -69 -6 0 -11 -7 -11 -15 0 -8 -5 -15 -11 -15 -6 0 -40 -29 -75 -65 -36
-36 -71 -65 -78 -65 -8 0 -17 -11 -20 -24 -3 -14 -16 -28 -28 -32 -26 -8 -48
-28 -48 -43 0 -6 -7 -11 -15 -11 -8 0 -15 -7 -15 -15 0 -8 -5 -15 -11 -15 -14
0 -39 -25 -39 -39 0 -6 -7 -11 -15 -11 -8 0 -15 -7 -15 -15 0 -8 -7 -15 -15
-15 -8 0 -15 -9 -15 -20 0 -13 -9 -22 -25 -26 -14 -3 -25 -12 -25 -20 0 -7
-47 -60 -105 -118 -58 -58 -105 -109 -105 -113 0 -5 -9 -16 -20 -26 -11 -9
-20 -23 -20 -30 0 -7 -9 -19 -20 -27 -11 -8 -20 -20 -20 -27 0 -7 -6 -13 -14
-13 -8 0 -17 -11 -20 -25 -4 -14 -11 -25 -16 -25 -6 0 -10 -7 -10 -15 0 -8 -4
-15 -10 -15 -5 0 -10 -7 -10 -15 0 -8 -7 -15 -15 -15 -8 0 -15 -7 -15 -15 0
-8 -11 -25 -25 -39 -14 -14 -25 -32 -25 -40 0 -9 -13 -29 -30 -46 -16 -17 -30
-35 -30 -40 0 -6 -4 -10 -10 -10 -5 0 -12 -11 -16 -25 -3 -14 -10 -25 -14 -25
-4 0 -11 -11 -14 -25 -4 -14 -11 -25 -16 -25 -6 0 -10 -7 -10 -15 0 -8 -4 -15
-10 -15 -5 0 -10 -6 -10 -14 0 -8 -6 -21 -14 -28 -7 -8 -17 -24 -20 -36 -4
-12 -12 -22 -17 -22 -5 0 -9 -7 -9 -15 0 -8 -4 -15 -9 -15 -5 0 -12 -11 -15
-25 -4 -14 -11 -25 -16 -25 -6 0 -10 -7 -10 -15 0 -8 -7 -15 -15 -15 -8 0 -15
-7 -15 -15 0 -8 -4 -15 -9 -15 -5 0 -11 -18 -15 -40 -3 -22 -10 -40 -15 -40
-5 0 -12 -11 -15 -25 -4 -14 -11 -25 -16 -25 -6 0 -10 -7 -10 -15 0 -8 -4 -15
-9 -15 -5 0 -11 -18 -15 -40 -3 -22 -11 -40 -16 -40 -6 0 -10 -11 -10 -24 0
-14 -7 -31 -15 -40 -8 -8 -15 -19 -15 -25 0 -6 -4 -11 -9 -11 -5 0 -12 -13
-16 -30 -4 -16 -11 -30 -16 -30 -5 0 -9 -11 -9 -24 0 -14 -7 -31 -15 -40 -8
-8 -15 -19 -15 -25 0 -6 -4 -11 -9 -11 -4 0 -11 -19 -14 -41 -3 -23 -10 -45
-15 -48 -5 -3 -13 -21 -17 -38 -3 -18 -11 -33 -16 -33 -5 0 -9 -13 -9 -30 0
-16 -4 -30 -9 -30 -5 0 -11 -18 -15 -40 -3 -22 -10 -40 -15 -40 -5 0 -11 -18
-15 -40 -3 -22 -11 -40 -16 -40 -6 0 -10 -11 -10 -25 0 -14 -4 -25 -9 -25 -5
0 -11 -22 -15 -50 -4 -27 -10 -50 -15 -50 -5 0 -11 -23 -13 -52 -3 -29 -11
-54 -17 -56 -6 -2 -11 -17 -11 -33 0 -16 -4 -29 -9 -29 -4 0 -11 -34 -14 -77
-3 -42 -10 -79 -15 -82 -5 -3 -12 -26 -15 -51 -3 -24 -11 -46 -16 -48 -6 -2
-11 -28 -11 -58 0 -30 -4 -54 -9 -54 -5 0 -11 -30 -13 -66 -2 -36 -9 -68 -15
-72 -6 -4 -14 -46 -18 -94 -4 -49 -11 -88 -16 -88 -5 0 -9 -31 -9 -70 0 -38
-4 -70 -9 -70 -4 0 -11 -111 -15 -247 -4 -137 -12 -249 -17 -251 -13 -5 -12
-179 1 -184 7 -2 13 -76 17 -191 3 -103 10 -187 15 -187 4 0 8 -60 8 -134 0
-82 4 -136 10 -138 6 -2 13 -35 17 -73 3 -39 10 -73 16 -76 5 -4 11 -36 14
-73 3 -36 10 -66 14 -66 5 0 9 -30 9 -66 0 -45 5 -70 15 -80 9 -10 15 -34 15
-65 0 -27 4 -49 9 -49 4 0 12 -36 15 -80 4 -44 12 -80 17 -80 5 0 9 -9 9 -19
0 -11 5 -21 10 -23 6 -2 13 -28 17 -58 3 -30 10 -58 15 -61 5 -3 12 -25 15
-48 3 -22 10 -41 14 -41 5 0 9 -16 9 -35 0 -19 4 -35 10 -35 5 0 13 -18 16
-40 4 -22 10 -40 15 -40 4 0 11 -20 15 -45 3 -25 10 -45 15 -45 5 0 9 -18 9
-40 0 -22 4 -40 10 -40 5 0 12 -17 16 -37 4 -21 11 -41 17 -44 5 -4 12 -27 14
-53 3 -25 10 -46 14 -46 5 0 9 -6 9 -14 0 -8 5 -16 11 -18 5 -2 13 -24 16 -48
3 -25 12 -49 19 -53 8 -4 14 -19 14 -32 0 -14 5 -25 10 -25 6 0 10 -11 10 -25
0 -14 4 -25 9 -25 5 0 12 -14 16 -30 4 -16 11 -30 16 -30 5 0 12 -18 15 -40 4
-22 10 -40 15 -40 5 0 9 -11 9 -25 0 -14 4 -25 10 -25 5 0 12 -17 16 -37 4
-21 13 -44 21 -51 7 -7 13 -22 13 -33 0 -10 5 -19 10 -19 6 0 10 -11 10 -25 0
-14 4 -25 10 -25 5 0 12 -17 16 -37 4 -21 13 -44 21 -51 7 -7 13 -20 13 -28 0
-8 5 -14 10 -14 6 0 10 -11 10 -24 0 -13 7 -26 15 -30 8 -3 15 -17 15 -31 0
-14 4 -25 10 -25 5 0 12 -11 16 -25 3 -14 10 -25 15 -25 5 0 9 -11 9 -24 0
-13 7 -26 15 -30 8 -3 15 -17 15 -31 0 -14 4 -25 10 -25 5 0 12 -16 16 -35 3
-19 10 -35 15 -35 5 0 9 -9 9 -20 0 -11 4 -20 9 -20 5 0 13 -10 17 -22 3 -12
13 -28 20 -36 8 -7 14 -24 14 -38 0 -13 5 -24 10 -24 6 0 10 -6 10 -14 0 -8 7
-16 15 -20 8 -3 15 -17 15 -31 0 -14 4 -25 10 -25 5 0 12 -11 16 -25 3 -14 10
-25 15 -25 5 0 9 -13 9 -30 0 -20 5 -30 15 -30 9 0 15 -9 15 -25 0 -14 4 -25
10 -25 5 0 12 -11 16 -25 3 -14 10 -25 15 -25 5 0 9 -11 9 -24 0 -13 7 -26 15
-30 8 -3 15 -14 15 -25 0 -10 7 -21 15 -25 8 -3 15 -12 15 -21 0 -8 5 -15 10
-15 6 0 10 -11 10 -25 0 -16 6 -25 15 -25 9 0 15 -9 15 -25 0 -14 4 -25 9 -25
5 0 12 -11 15 -25 4 -14 11 -25 16 -25 6 0 10 -7 10 -15 0 -8 4 -15 9 -15 5 0
12 -14 16 -30 4 -17 13 -30 21 -30 8 0 14 -10 14 -25 0 -14 5 -25 10 -25 6 0
10 -7 10 -15 0 -8 7 -15 15 -15 9 0 15 -9 15 -25 0 -14 4 -25 10 -25 5 0 12
-11 16 -25 3 -14 10 -25 15 -25 5 0 9 -7 9 -15 0 -8 4 -15 9 -15 5 0 13 -10
17 -22 3 -12 13 -28 20 -36 8 -7 14 -21 14 -31 0 -9 9 -23 20 -31 10 -8 22
-27 25 -42 4 -15 11 -28 16 -28 5 0 11 -11 15 -25 3 -14 10 -25 15 -25 5 0 9
-7 9 -15 0 -8 4 -15 9 -15 5 0 13 -10 17 -22 3 -12 13 -28 20 -36 8 -7 14 -20
14 -28 0 -8 5 -14 10 -14 6 0 10 -7 10 -15 0 -8 4 -15 10 -15 5 0 12 -11 16
-25 3 -14 12 -25 20 -25 8 0 14 -10 14 -25 0 -14 4 -25 9 -25 17 0 41 -31 41
-51 0 -11 11 -30 25 -43 14 -13 25 -28 25 -35 0 -6 5 -11 10 -11 6 0 10 -6 10
-13 0 -8 9 -24 20 -37 11 -13 20 -29 20 -37 0 -8 11 -25 25 -39 14 -14 25 -29
25 -35 0 -5 11 -20 25 -33 14 -13 25 -28 25 -35 0 -6 5 -11 10 -11 6 0 10 -6
10 -14 0 -8 6 -21 14 -28 7 -8 17 -24 20 -36 4 -12 12 -22 17 -22 5 0 9 -7 9
-15 0 -8 4 -15 10 -15 5 0 12 -11 16 -24 3 -14 12 -27 20 -30 8 -3 14 -15 14
-26 0 -11 5 -20 10 -20 6 0 10 -5 10 -10 0 -6 11 -21 24 -33 13 -12 26 -32 30
-44 4 -13 12 -23 17 -23 5 0 9 -5 9 -11 0 -7 11 -22 24 -34 13 -12 27 -32 31
-43 3 -12 11 -22 16 -22 5 0 9 -5 9 -11 0 -6 14 -24 30 -41 17 -16 30 -36 30
-44 0 -8 5 -14 10 -14 6 0 10 -7 10 -15 0 -8 4 -15 9 -15 5 0 13 -10 17 -22 4
-13 17 -33 30 -45 13 -12 24 -29 24 -36 0 -8 7 -17 15 -21 8 -3 15 -12 15 -21
0 -8 7 -15 15 -15 8 0 15 -9 15 -20 0 -11 5 -20 10 -20 6 0 10 -6 10 -14 0 -8
7 -16 15 -20 8 -3 15 -14 15 -25 0 -10 7 -21 15 -25 8 -3 15 -10 15 -17 0 -6
15 -26 34 -44 19 -18 37 -42 41 -54 3 -11 11 -21 16 -21 5 0 9 -7 9 -15 0 -8
7 -15 15 -15 9 0 15 -9 15 -25 0 -16 6 -25 15 -25 8 0 15 -7 15 -15 0 -8 5
-15 10 -15 6 0 10 -5 10 -10 0 -12 15 -32 43 -58 9 -9 17 -20 17 -25 0 -4 11
-19 25 -33 14 -14 25 -29 25 -35 0 -5 11 -20 25 -33 14 -13 25 -26 25 -30 0
-4 12 -21 28 -36 37 -40 52 -58 52 -65 0 -9 40 -45 50 -45 6 0 10 -7 10 -15 0
-8 5 -15 10 -15 6 0 10 -7 10 -15 0 -8 7 -15 15 -15 8 0 15 -9 15 -20 0 -11 5
-20 10 -20 6 0 14 -8 17 -17 4 -10 24 -35 45 -56 21 -21 38 -44 38 -50 0 -7
11 -21 25 -31 14 -10 25 -25 25 -32 0 -8 7 -14 15 -14 8 0 15 -9 15 -20 0 -11
4 -20 9 -20 15 0 71 -60 71 -76 0 -8 5 -14 10 -14 6 0 10 -7 10 -15 0 -8 7
-15 15 -15 8 0 15 -7 15 -15 0 -16 46 -65 61 -65 4 0 11 -10 15 -22 4 -13 17
-33 30 -45 13 -12 24 -27 24 -33 0 -5 18 -27 40 -49 22 -21 40 -44 40 -50 0
-6 7 -11 15 -11 8 0 15 -7 15 -15 0 -8 4 -15 9 -15 5 0 12 -9 16 -19 3 -11 15
-23 25 -26 11 -4 23 -17 26 -31 3 -13 12 -24 20 -24 8 0 14 -7 14 -15 0 -8 5
-15 10 -15 6 0 10 -7 10 -15 0 -8 7 -15 15 -15 8 0 15 -7 15 -15 0 -9 11 -26
25 -39 14 -13 25 -28 25 -35 0 -6 7 -11 15 -11 8 0 15 -7 15 -15 0 -8 7 -15
15 -15 8 0 15 -5 15 -10 0 -6 18 -29 40 -51 22 -22 40 -46 40 -52 0 -7 11 -21
25 -31 14 -10 25 -25 25 -32 0 -8 5 -14 11 -14 14 0 39 -25 39 -39 0 -6 4 -11
10 -11 5 0 12 -11 16 -25 3 -14 12 -25 20 -25 8 0 14 -5 14 -10 0 -6 23 -33
50 -60 28 -27 50 -54 50 -60 0 -5 5 -10 10 -10 11 0 70 -56 70 -66 0 -6 18
-28 54 -63 15 -16 33 -34 40 -40 6 -7 19 -20 29 -29 9 -9 17 -20 17 -25 0 -12
27 -37 39 -37 6 0 11 -5 11 -11 0 -7 16 -26 35 -45 19 -18 35 -37 35 -43 0 -5
14 -23 30 -39 17 -17 30 -35 30 -41 0 -6 5 -11 10 -11 15 0 100 -85 100 -99 0
-6 7 -11 15 -11 8 0 15 -9 15 -19 0 -11 9 -23 20 -26 11 -3 23 -17 26 -31 3
-13 12 -24 20 -24 8 0 14 -5 14 -10 0 -13 57 -70 70 -70 6 0 10 -7 10 -15 0
-8 5 -15 10 -15 6 0 10 -7 10 -15 0 -8 5 -15 10 -15 13 0 70 -57 70 -70 0 -6
5 -10 10 -10 13 0 70 -57 70 -70 0 -6 5 -10 10 -10 13 0 70 -57 70 -70 0 -6 5
-10 11 -10 6 0 25 -16 44 -35 43 -46 95 -57 121 -26 10 11 22 21 27 21 10 0
37 26 37 35 0 4 14 21 30 38 32 34 32 34 76 78 42 41 54 57 54 69 0 5 7 10 15
10 8 0 15 7 15 15 0 8 5 15 11 15 14 0 39 25 39 39 0 6 7 11 15 11 8 0 15 7
15 15 0 8 7 15 15 15 8 0 15 5 15 10 0 6 18 28 40 50 22 22 40 46 40 54 0 8 9
18 20 21 11 3 20 10 20 15 0 5 14 22 30 38 17 17 30 35 30 41 0 6 5 11 11 11
14 0 69 55 69 69 0 6 5 11 11 11 12 0 39 25 39 35 0 4 20 27 45 52 25 24 45
49 45 54 0 14 26 39 39 39 6 0 11 5 11 10 0 6 25 34 55 64 30 29 55 60 55 69
0 10 4 17 9 17 5 0 22 13 38 30 43 45 53 58 53 70 0 5 7 10 15 10 8 0 15 6 15
13 0 6 18 28 40 47 22 19 40 43 40 53 0 9 7 17 15 17 8 0 15 6 15 14 0 8 9 18
20 21 11 3 20 10 20 15 0 5 14 22 30 38 17 17 30 33 30 37 0 4 14 20 30 37 17
16 30 34 30 39 0 14 26 39 39 39 6 0 11 5 11 10 0 6 18 28 40 49 22 21 40 41
40 45 0 7 17 30 38 49 52 49 92 93 92 102 0 3 18 23 40 45 22 22 40 45 40 50
0 6 4 10 9 10 5 0 13 9 16 20 3 11 13 20 21 20 8 0 14 7 14 15 0 8 5 15 10 15
6 0 10 7 10 15 0 8 4 15 10 15 13 0 50 32 50 43 0 4 11 19 25 33 14 14 25 29
25 35 0 5 11 20 25 33 14 13 25 28 25 35 0 6 4 11 10 11 5 0 12 11 16 25 3 14
11 25 16 25 10 0 38 25 38 34 0 3 18 24 40 46 22 22 40 42 40 45 0 7 19 31 43
53 9 9 17 22 17 29 0 7 5 13 10 13 6 0 10 9 10 20 0 11 7 20 15 20 8 0 15 5
15 10 0 6 11 21 25 34 14 13 25 26 25 30 0 4 12 21 28 36 37 39 52 58 52 64 0
3 14 19 30 36 17 17 30 37 30 45 0 8 5 15 10 15 6 0 10 7 10 15 0 8 5 15 11
15 14 0 39 25 39 40 0 6 7 13 15 16 8 4 15 15 15 25 0 10 7 19 15 19 8 0 15 6
15 14 0 8 7 16 15 20 8 3 15 15 15 26 0 11 5 20 10 20 6 0 10 7 10 15 0 8 7
15 15 15 8 0 15 7 15 15 0 8 4 15 10 15 5 0 12 11 16 25 3 14 10 25 15 25 5 0
9 7 9 15 0 8 7 15 15 15 8 0 15 7 15 15 0 8 4 15 10 15 5 0 12 10 15 23 4 13
17 31 31 41 13 11 24 23 24 28 0 5 6 16 13 23 29 33 37 45 37 54 0 5 7 11 15
15 8 3 15 15 15 26 0 11 7 20 15 20 8 0 15 7 15 15 0 8 5 15 10 15 6 0 10 7
10 15 0 8 4 15 10 15 5 0 12 11 16 24 3 14 12 27 20 30 8 3 14 15 14 26 0 11
5 20 10 20 6 0 10 7 10 15 0 8 7 15 15 15 8 0 15 5 15 11 0 7 11 22 25 35 14
13 25 32 25 44 0 11 7 20 15 20 8 0 15 7 15 15 0 8 4 15 10 15 5 0 12 10 15
23 4 13 17 31 31 41 13 11 24 23 24 28 0 5 6 16 13 23 29 33 37 45 37 55 0 5
5 10 10 10 6 0 10 7 10 15 0 8 9 23 20 32 11 10 20 23 20 30 0 7 5 13 10 13 6
0 10 9 10 20 0 11 7 20 15 20 8 0 15 6 15 14 0 8 7 16 15 20 8 3 15 15 15 26
0 11 5 20 10 20 6 0 10 6 10 14 0 8 7 16 15 20 8 3 15 14 15 25 0 10 7 21 15
25 8 3 15 12 15 21 0 8 5 15 10 15 6 0 10 9 10 20 0 11 7 20 15 20 8 0 15 7
15 15 0 8 4 15 9 15 5 0 12 11 15 25 4 14 11 25 16 25 6 0 10 7 10 15 0 8 7
15 15 15 9 0 15 9 15 25 0 16 6 25 15 25 8 0 15 7 15 15 0 8 5 15 10 15 6 0
10 11 10 25 0 16 6 25 15 25 8 0 15 6 15 14 0 8 7 16 15 20 8 3 15 15 15 26 0
11 5 20 10 20 6 0 10 6 10 14 0 8 7 16 15 20 8 3 15 14 15 25 0 10 7 21 15 25
8 3 15 12 15 21 0 8 5 15 10 15 6 0 10 9 10 20 0 11 7 20 15 20 8 0 15 9 15
20 0 11 4 20 10 20 5 0 12 11 16 25 3 14 10 25 15 25 5 0 9 11 9 25 0 14 4 25
10 25 5 0 12 11 16 25 3 14 12 25 20 25 8 0 14 10 14 25 0 14 5 25 10 25 6 0
10 6 10 14 0 8 7 16 15 20 8 3 15 14 15 25 0 10 7 21 15 25 8 3 15 12 15 21 0
8 5 15 10 15 6 0 10 9 10 20 0 11 4 20 9 20 5 0 12 13 16 30 4 16 11 30 16 30
5 0 11 11 15 25 3 14 10 25 15 25 5 0 9 7 9 15 0 8 4 15 10 15 5 0 12 11 16
25 3 14 10 25 14 25 5 0 11 14 15 30 4 16 11 30 16 30 5 0 9 11 9 25 0 16 6
25 15 25 9 0 15 9 15 24 0 13 7 26 15 30 8 3 15 15 15 26 0 11 5 20 10 20 6 0
10 7 10 15 0 8 4 15 9 15 5 0 12 11 15 25 4 14 10 25 15 25 5 0 12 14 16 30 4
16 11 30 16 30 5 0 9 11 9 25 0 16 6 25 15 25 9 0 15 9 15 25 0 14 4 25 9 25
5 0 12 13 16 30 4 16 11 30 16 30 5 0 9 7 9 15 0 8 4 15 10 15 5 0 12 15 16
34 3 19 12 37 20 40 8 3 14 16 14 28 0 13 9 30 20 38 11 8 23 31 26 52 4 20
13 39 20 42 8 3 14 12 14 21 0 8 5 15 10 15 6 0 10 11 10 25 0 14 4 25 10 25
5 0 12 11 16 25 3 14 10 25 15 25 5 0 12 18 15 40 4 22 10 40 15 40 5 0 9 5 9
11 0 6 7 17 15 25 8 9 15 26 15 39 0 12 7 25 15 29 8 3 15 17 15 31 0 14 5 25
10 25 6 0 10 11 10 25 0 16 6 25 15 25 9 0 15 9 15 25 0 14 4 25 10 25 5 0 13
18 16 40 4 22 10 40 15 40 5 0 9 12 9 26 0 14 7 32 15 40 8 9 15 29 15 45 0
16 4 29 10 29 5 0 12 11 16 25 3 14 10 25 15 25 5 0 9 11 9 25 0 14 4 25 10
25 5 0 13 18 16 40 4 22 10 40 14 40 5 0 11 14 15 30 4 16 11 30 16 30 5 0 9
18 9 40 0 22 4 40 9 40 5 0 13 10 17 23 4 12 11 25 16 28 5 3 12 25 15 48 3
22 10 41 14 41 5 0 9 9 9 19 0 11 5 21 11 23 6 2 13 33 16 68 4 36 12 71 20
78 7 7 13 27 13 43 0 16 5 29 10 29 6 0 10 14 10 30 0 17 4 30 10 30 5 0 12
23 16 50 4 28 10 50 15 50 5 0 12 18 15 40 4 22 10 40 15 40 5 0 9 18 9 39 0
22 5 41 11 43 5 2 13 24 16 48 3 25 11 48 16 52 6 4 13 36 15 72 2 36 8 66 13
66 5 0 9 16 9 36 0 19 7 42 15 50 11 11 15 37 15 94 0 46 4 80 10 82 6 2 14
29 17 61 3 31 10 57 14 57 5 0 9 29 9 65 0 36 4 65 9 65 4 0 11 57 15 127 4
70 11 130 17 133 5 4 12 54 15 113 4 59 11 107 16 107 4 0 8 137 8 305 0 168
-4 305 -9 305 -4 0 -11 52 -13 116 -4 72 -10 119 -17 123 -7 4 -14 46 -18 94
-3 48 -10 87 -14 87 -5 0 -9 32 -9 70 0 39 -4 70 -9 70 -4 0 -11 30 -14 66 -3
37 -9 69 -14 73 -6 3 -13 37 -16 76 -4 38 -11 71 -17 73 -5 2 -10 15 -10 28 0
13 -4 24 -9 24 -4 0 -12 36 -15 80 -4 44 -11 80 -15 80 -5 0 -11 19 -14 42 -3
24 -11 44 -16 46 -6 2 -11 21 -11 43 0 21 -4 39 -9 39 -5 0 -11 18 -15 40 -3
22 -10 40 -15 40 -5 0 -11 21 -14 47 -3 26 -10 49 -16 51 -6 2 -11 17 -11 33
0 16 -4 29 -10 29 -5 0 -10 11 -10 24 0 14 -7 31 -15 40 -8 8 -15 26 -15 40 0
13 -7 31 -15 40 -8 8 -15 26 -15 40 0 14 -4 26 -9 26 -5 0 -11 18 -15 40 -3
22 -11 40 -16 40 -6 0 -10 11 -10 25 0 14 -7 28 -15 31 -8 4 -15 15 -15 25 0
10 -4 19 -10 19 -5 0 -10 13 -10 29 0 16 -7 36 -15 44 -7 8 -17 26 -21 41 -3
14 -10 26 -15 26 -5 0 -9 7 -9 15 0 8 -4 15 -10 15 -5 0 -10 11 -10 24 0 14
-7 31 -15 39 -7 8 -17 26 -21 41 -3 14 -10 26 -15 26 -5 0 -9 11 -9 25 0 14
-4 25 -9 25 -5 0 -12 11 -15 25 -4 14 -11 25 -16 25 -6 0 -10 6 -10 14 0 7
-11 22 -25 32 -14 10 -25 28 -25 39 0 11 -8 28 -17 37 -31 29 -43 47 -43 63 0
8 -4 15 -10 15 -5 0 -10 9 -10 20 0 11 -6 20 -14 20 -8 0 -17 14 -21 30 -4 17
-11 30 -16 30 -5 0 -9 7 -9 15 0 8 -4 15 -10 15 -5 0 -10 6 -10 13 0 8 -9 24
-20 37 -11 13 -20 29 -20 36 0 7 -9 16 -20 19 -11 4 -20 15 -20 26 0 11 -7 22
-15 25 -8 4 -15 12 -15 20 0 7 -11 24 -25 38 -14 14 -25 30 -25 36 0 5 -6 10
-14 10 -8 0 -17 11 -20 25 -4 14 -11 25 -16 25 -6 0 -10 7 -10 15 0 8 -4 15
-9 15 -5 0 -12 11 -15 25 -4 14 -11 25 -16 25 -6 0 -10 7 -10 15 0 8 -7 15
-15 15 -8 0 -15 7 -15 15 0 8 -4 15 -9 15 -5 0 -12 11 -15 25 -4 14 -11 25
-16 25 -6 0 -10 7 -10 15 0 8 -5 15 -11 15 -14 0 -39 25 -39 39 0 6 -7 11 -15
11 -8 0 -15 7 -15 15 0 8 -5 15 -11 15 -14 0 -39 25 -39 39 0 6 -6 11 -14 11
-8 0 -17 11 -20 25 -4 14 -10 25 -15 25 -12 0 -71 59 -71 70 0 5 -9 12 -20 15
-11 3 -23 17 -26 31 -3 13 -10 24 -16 24 -12 0 -48 32 -105 92 -22 24 -42 38
-53 38 -5 0 -10 7 -10 15 0 8 -5 15 -11 15 -14 0 -39 25 -39 39 0 6 -7 11 -15
11 -8 0 -15 7 -15 15 0 8 -5 15 -11 15 -6 0 -51 41 -100 90 -49 50 -93 90 -98
90 -5 0 -28 18 -50 40 -22 22 -45 40 -51 40 -6 0 -13 7 -16 15 -4 8 -15 15
-25 15 -10 0 -19 7 -19 15 0 8 -7 15 -15 15 -8 0 -15 5 -15 10 0 6 -7 10 -15
10 -8 0 -15 7 -15 15 0 9 -9 15 -25 15 -16 0 -25 6 -25 15 0 8 -7 15 -15 15
-8 0 -15 4 -15 9 0 5 -10 13 -22 16 -11 4 -31 18 -43 31 -12 13 -30 24 -39 24
-9 0 -27 11 -39 24 -12 13 -32 26 -44 30 -13 4 -23 12 -23 17 0 5 -7 9 -15 9
-8 0 -15 5 -15 10 0 6 -6 10 -14 10 -8 0 -21 6 -28 14 -8 7 -24 17 -36 20 -12
4 -22 12 -22 17 0 5 -9 9 -20 9 -11 0 -20 4 -20 10 0 5 -11 12 -25 16 -14 3
-25 10 -25 15 0 5 -11 9 -25 9 -16 0 -25 6 -25 15 0 8 -7 15 -15 15 -8 0 -15
4 -15 9 0 5 -11 12 -25 15 -14 4 -25 11 -25 16 0 6 -11 10 -25 10 -14 0 -28 7
-31 15 -4 8 -15 15 -25 15 -10 0 -19 5 -19 10 0 6 -8 10 -18 10 -11 0 -29 9
-42 20 -13 11 -29 20 -37 20 -7 0 -13 5 -13 10 0 6 -11 10 -25 10 -14 0 -25 4
-25 9 0 5 -13 12 -30 16 -16 4 -30 10 -30 14 0 5 -16 11 -36 14 -20 3 -43 15
-52 25 -10 10 -35 22 -57 25 -22 4 -41 11 -43 17 -2 5 -14 10 -27 10 -13 0
-30 7 -39 15 -8 8 -26 15 -40 15 -14 0 -26 4 -26 9 0 5 -18 11 -40 15 -22 3
-40 10 -40 15 0 5 -18 11 -40 15 -22 3 -40 11 -40 16 0 6 -11 10 -25 10 -14 0
-25 5 -25 10 0 6 -13 10 -29 10 -16 0 -36 7 -44 15 -8 8 -45 17 -81 21 -36 4
-66 11 -66 15 0 5 -16 9 -35 9 -19 0 -35 4 -35 9 0 5 -27 12 -60 16 -33 4 -60
10 -60 15 0 4 -21 10 -47 13 -26 3 -49 10 -51 16 -2 6 -26 11 -53 11 -27 0
-49 5 -49 10 0 6 -26 10 -59 10 -37 0 -65 5 -73 14 -9 8 -50 16 -106 21 -51 4
-92 11 -92 16 0 5 -22 9 -49 9 -27 0 -51 5 -53 11 -2 7 -101 13 -306 16 -166
4 -302 10 -302 15 0 14 -158 10 -163 -4 -4 -10 -6 -10 -6 0 -1 13 -21 17 -21
4z m1870 -2032 c0 -5 16 -10 35 -10 19 0 35 -4 35 -9 0 -5 14 -12 30 -16 17
-4 30 -13 30 -21 0 -8 7 -14 15 -14 8 0 15 -4 15 -10 0 -5 7 -10 15 -10 19 0
51 -32 60 -59 3 -12 11 -21 16 -21 5 0 9 -11 9 -24 0 -13 6 -26 13 -29 17 -5
17 -209 -1 -215 -6 -2 -12 -19 -12 -38 0 -19 -4 -34 -10 -34 -5 0 -10 -7 -10
-15 0 -9 -7 -18 -15 -21 -8 -4 -15 -17 -15 -30 0 -15 -6 -24 -15 -24 -8 0 -15
-7 -15 -15 0 -8 -4 -15 -10 -15 -5 0 -10 -9 -10 -20 0 -11 -6 -23 -14 -26 -8
-3 -17 -16 -20 -30 -4 -13 -11 -24 -16 -24 -6 0 -10 -7 -10 -15 0 -8 -4 -15
-9 -15 -5 0 -12 -11 -15 -25 -4 -14 -11 -25 -16 -25 -6 0 -10 -11 -10 -24 0
-13 -11 -31 -25 -42 -14 -10 -25 -24 -25 -31 0 -6 -6 -18 -14 -25 -7 -8 -17
-25 -21 -38 -4 -14 -16 -32 -26 -41 -10 -8 -21 -27 -24 -42 -4 -15 -11 -27
-15 -27 -4 0 -11 -11 -14 -25 -4 -14 -11 -25 -16 -25 -6 0 -10 -7 -10 -15 0
-8 -4 -15 -10 -15 -5 0 -10 -6 -10 -14 0 -8 -6 -21 -14 -28 -7 -8 -17 -24 -20
-36 -4 -12 -12 -22 -17 -22 -5 0 -9 -7 -9 -15 0 -8 -4 -15 -10 -15 -5 0 -10
-13 -10 -30 l0 -30 60 0 c33 0 60 -4 60 -10 0 -7 145 -10 415 -10 270 0 415 3
415 10 0 6 11 10 25 10 14 0 25 -4 25 -10 0 -6 27 -10 60 -10 33 0 60 4 60 10
0 6 28 10 65 10 37 0 65 -4 65 -10 0 -6 105 -10 295 -10 l295 0 0 -25 c0 -14
6 -25 13 -26 10 0 10 -2 0 -6 -7 -2 -13 -13 -13 -24 0 -11 -7 -22 -15 -25 -8
-4 -15 -12 -15 -20 0 -8 -5 -14 -11 -14 -6 0 -17 -6 -25 -14 -8 -8 -14 -19
-14 -25 0 -6 -6 -11 -14 -11 -8 0 -17 -11 -20 -25 -4 -14 -11 -25 -16 -25 -6
0 -10 -5 -10 -11 0 -6 -12 -24 -27 -39 -38 -40 -53 -58 -53 -65 0 -3 -18 -23
-40 -45 -22 -22 -40 -42 -40 -45 0 -7 -15 -25 -52 -65 -16 -15 -28 -32 -28
-35 0 -4 -22 -29 -50 -56 -27 -27 -50 -53 -50 -59 0 -5 -6 -10 -14 -10 -8 0
-17 -11 -20 -25 -4 -14 -11 -25 -16 -25 -6 0 -10 -7 -10 -15 0 -8 -7 -15 -15
-15 -8 0 -15 -5 -15 -10 0 -10 -8 -22 -37 -55 -7 -7 -13 -18 -13 -24 0 -6 -4
-11 -10 -11 -5 0 -10 -7 -10 -15 0 -8 -7 -15 -15 -15 -8 0 -15 -7 -15 -15 0
-8 -7 -15 -15 -15 -8 0 -15 -5 -15 -10 0 -14 -30 -49 -92 -107 -23 -21 -38
-42 -38 -51 0 -5 -11 -18 -25 -28 -14 -10 -25 -24 -25 -31 0 -7 -7 -13 -15
-13 -8 0 -15 -7 -15 -15 0 -8 -11 -25 -25 -39 -14 -14 -25 -30 -25 -36 0 -6
-7 -13 -15 -16 -8 -3 -17 -14 -20 -24 -3 -11 -15 -22 -26 -25 -10 -4 -19 -13
-19 -21 0 -8 -6 -14 -14 -14 -8 0 -18 -9 -21 -20 -3 -11 -11 -20 -16 -20 -5 0
-9 -5 -9 -10 0 -6 -11 -21 -25 -34 -14 -13 -25 -28 -25 -35 0 -6 -7 -11 -15
-11 -8 0 -15 -5 -15 -10 0 -10 -8 -22 -37 -55 -7 -7 -13 -18 -13 -23 0 -5 -11
-18 -25 -28 -14 -10 -25 -24 -25 -31 0 -7 -7 -13 -15 -13 -8 0 -15 -7 -15 -15
0 -8 -7 -15 -15 -15 -8 0 -15 -7 -15 -15 0 -9 -11 -26 -25 -39 -14 -13 -25
-28 -25 -35 0 -6 -7 -11 -15 -11 -8 0 -15 -5 -15 -11 0 -6 -12 -24 -27 -39
-39 -41 -53 -58 -53 -65 0 -3 -11 -16 -25 -29 -14 -13 -25 -28 -25 -35 0 -6
-7 -11 -15 -11 -8 0 -15 -5 -15 -10 0 -12 -10 -25 -53 -70 -16 -17 -33 -30
-38 -30 -5 0 -9 -9 -9 -20 0 -11 -7 -23 -15 -26 -8 -4 -15 -12 -15 -20 0 -8
-5 -14 -11 -14 -14 0 -39 -25 -39 -39 0 -6 -6 -11 -14 -11 -8 0 -17 -11 -20
-25 -4 -14 -11 -25 -16 -25 -6 0 -10 -7 -10 -15 0 -8 -4 -15 -10 -15 -5 0 -10
-7 -10 -15 0 -8 -6 -15 -14 -15 -8 0 -18 -10 -22 -22 -3 -12 -22 -36 -40 -54
-19 -17 -34 -36 -34 -43 0 -6 -7 -11 -15 -11 -8 0 -15 -5 -15 -10 0 -12 -10
-25 -52 -70 -16 -15 -28 -32 -28 -36 0 -4 -11 -17 -25 -30 -14 -13 -25 -28
-25 -34 0 -5 -7 -10 -15 -10 -8 0 -15 -7 -15 -15 0 -9 -11 -26 -25 -39 -14
-13 -25 -28 -25 -35 0 -6 -7 -11 -15 -11 -8 0 -15 -7 -15 -15 0 -8 -4 -15 -10
-15 -5 0 -10 -7 -10 -15 0 -8 -6 -15 -14 -15 -8 0 -18 -9 -21 -20 -3 -11 -11
-20 -16 -20 -5 0 -9 -5 -9 -10 0 -6 -22 -33 -50 -60 -27 -27 -50 -54 -50 -60
0 -5 -6 -10 -14 -10 -8 0 -17 -11 -20 -24 -3 -14 -15 -28 -26 -31 -11 -4 -20
-15 -20 -26 0 -11 -7 -22 -15 -25 -8 -4 -15 -12 -15 -20 0 -8 -5 -14 -11 -14
-13 0 -39 -25 -39 -39 0 -5 -20 -30 -45 -54 -25 -25 -45 -48 -45 -52 0 -10
-27 -35 -39 -35 -6 0 -11 -7 -11 -15 0 -8 -4 -15 -10 -15 -5 0 -10 -7 -10 -15
0 -8 -7 -15 -15 -15 -8 0 -15 -8 -15 -19 0 -10 -11 -27 -25 -37 -14 -10 -25
-24 -25 -31 0 -7 -6 -13 -14 -13 -8 0 -17 -11 -20 -24 -3 -14 -15 -27 -26 -31
-10 -3 -22 -15 -25 -26 -4 -10 -11 -19 -16 -19 -5 0 -9 -6 -9 -14 0 -7 -11
-22 -25 -32 -14 -10 -25 -24 -25 -31 0 -7 -6 -13 -14 -13 -8 0 -17 -11 -20
-25 -4 -14 -11 -25 -16 -25 -6 0 -10 -13 -10 -30 0 -16 -4 -30 -10 -30 -6 0
-10 -58 -10 -155 0 -97 4 -155 10 -155 7 0 10 -243 10 -710 l0 -710 30 0 c17
0 30 -4 30 -9 0 -6 218 -11 537 -13 418 -2 537 -6 541 -15 2 -7 10 -13 18 -13
15 0 34 -13 62 -42 9 -10 20 -18 25 -18 12 0 37 -27 37 -39 0 -6 4 -11 9 -11
5 0 13 -10 17 -22 4 -13 11 -26 17 -29 5 -4 12 -30 15 -58 2 -28 8 -51 13 -51
5 0 9 -18 9 -40 0 -22 -4 -40 -9 -40 -5 0 -11 -23 -13 -52 -3 -29 -11 -54 -17
-56 -6 -2 -11 -10 -11 -18 0 -20 -95 -114 -115 -114 -8 0 -15 -7 -15 -15 0 -8
-9 -15 -20 -15 -11 0 -20 -4 -20 -10 0 -5 -15 -10 -34 -10 -19 0 -36 -6 -39
-12 -5 -17 -2799 -16 -2805 1 -2 6 -19 11 -38 11 -19 0 -34 4 -34 9 0 5 -18
11 -40 15 -22 3 -40 11 -40 16 0 6 -7 10 -15 10 -8 0 -15 5 -15 11 0 14 -25
39 -39 39 -6 0 -11 7 -11 15 0 8 -7 15 -15 15 -8 0 -15 7 -15 15 0 8 -4 15
-10 15 -5 0 -10 11 -10 25 0 14 -7 28 -15 31 -12 5 -15 28 -15 119 0 91 3 114
15 119 8 3 15 15 15 26 0 11 5 20 10 20 6 0 10 4 10 10 0 13 57 70 70 70 5 0
10 7 10 15 0 8 7 15 15 15 8 0 15 7 15 15 0 9 9 15 24 15 13 0 26 6 28 13 4 9
124 13 546 15 328 2 542 7 542 13 0 5 11 9 24 9 17 0 25 7 28 23 2 12 4 413 3
891 0 686 -3 870 -12 873 -7 3 -13 9 -13 15 0 5 -12 23 -27 38 -43 45 -53 58
-53 70 0 5 -4 10 -10 10 -5 0 -10 7 -10 15 0 8 -4 15 -10 15 -12 0 -70 57 -70
69 0 5 -13 23 -30 39 -16 17 -30 34 -30 38 0 4 -11 17 -25 30 -14 13 -25 28
-25 33 0 6 -11 21 -25 35 -14 14 -25 30 -25 36 0 5 -7 10 -15 10 -8 0 -15 7
-15 15 0 8 -5 15 -11 15 -12 0 -39 25 -39 37 0 5 -8 16 -17 25 -24 22 -43 46
-43 53 0 3 -22 27 -49 54 -27 27 -52 58 -56 70 -3 11 -11 21 -16 21 -5 0 -9 7
-9 15 0 8 -7 15 -15 15 -8 0 -15 5 -15 11 0 6 -25 35 -55 65 -30 30 -55 59
-55 65 0 5 -16 25 -35 43 -19 19 -35 39 -35 45 0 6 -6 11 -14 11 -8 0 -17 11
-20 24 -3 14 -15 28 -26 31 -11 3 -20 13 -20 21 0 8 -18 32 -40 54 -22 22 -40
44 -40 49 0 8 -15 24 -72 78 -24 22 -38 42 -38 53 0 5 -7 10 -15 10 -8 0 -15
7 -15 15 0 8 -4 15 -9 15 -5 0 -13 10 -16 21 -4 12 -22 36 -41 54 -19 18 -34
38 -34 44 0 6 -6 11 -14 11 -8 0 -17 11 -20 24 -3 14 -15 27 -26 31 -10 3 -22
16 -26 28 -4 12 -22 36 -40 54 -19 17 -34 36 -34 42 0 6 -4 11 -10 11 -13 0
-50 37 -50 50 0 6 -4 10 -10 10 -5 0 -10 9 -10 20 0 11 -7 20 -15 20 -8 0 -15
7 -15 15 0 8 -7 15 -15 15 -8 0 -15 5 -15 11 0 6 -18 29 -40 50 -22 22 -40 46
-40 54 0 8 -4 15 -10 15 -5 0 -10 7 -10 15 0 8 -6 15 -14 15 -8 0 -17 11 -20
25 -4 14 -10 25 -15 25 -5 0 -22 13 -38 30 -43 45 -53 58 -53 70 0 5 -7 10
-15 10 -8 0 -15 5 -15 11 0 7 -15 26 -34 43 -18 18 -37 42 -40 54 -4 12 -12
22 -17 22 -5 0 -9 7 -9 15 0 8 -7 15 -15 15 -8 0 -15 7 -15 15 0 8 -4 15 -10
15 -5 0 -12 11 -16 24 -3 15 -15 27 -30 30 -15 4 -24 14 -24 26 0 13 -9 22
-25 26 -14 3 -25 12 -25 20 0 7 -11 24 -25 38 -14 14 -25 29 -25 33 0 5 -8 16
-17 25 -24 22 -43 46 -43 53 0 3 -11 16 -25 29 -14 13 -25 28 -25 35 0 6 -5
11 -11 11 -15 0 -35 22 -43 48 -4 12 -14 22 -22 22 -8 0 -14 6 -14 14 0 8 -9
17 -19 21 -11 3 -23 15 -26 26 -4 10 -11 19 -16 19 -5 0 -9 7 -9 15 0 8 -7 15
-15 15 -8 0 -15 7 -15 15 0 8 -4 15 -9 15 -5 0 -12 11 -15 25 -4 14 -11 25
-16 25 -6 0 -10 7 -10 15 0 8 -5 15 -11 15 -12 0 -39 25 -39 37 0 5 -8 16 -17
25 -28 26 -43 46 -43 58 0 5 -7 10 -15 10 -8 0 -15 5 -15 11 0 7 -16 26 -35
45 -19 18 -35 37 -35 43 0 5 -13 23 -30 39 -16 17 -30 33 -30 37 0 10 -28 35
-39 35 -6 0 -11 6 -11 14 0 7 -11 22 -25 32 -14 10 -25 24 -25 31 0 6 -18 30
-40 52 -22 22 -40 44 -40 48 0 5 -8 16 -17 25 -24 22 -43 46 -43 53 0 3 -11
16 -25 29 -28 26 -32 60 -11 82 12 11 54 14 210 14 124 0 196 4 196 10 0 7
403 10 1190 10 787 0 1190 -3 1190 -10 0 -16 180 -13 181 3 0 10 2 10 6 0 3
-10 59 -13 228 -13 169 0 225 3 229 13 5 10 7 10 12 0 7 -16 164 -18 164 -3 0
6 18 10 40 10 22 0 40 -4 40 -10 0 -6 43 -10 110 -10 67 0 110 4 110 10 0 6
24 10 53 10 58 0 89 17 101 58 4 12 11 22 16 22 5 0 11 14 15 30 4 17 11 30
16 30 5 0 9 7 9 15 0 8 4 15 9 15 5 0 13 10 17 22 3 12 13 28 20 36 8 7 14 20
14 28 0 8 5 14 10 14 6 0 10 7 10 15 0 8 4 15 10 15 5 0 12 11 16 24 3 14 12
27 20 30 8 3 14 15 14 26 0 11 5 20 10 20 6 0 10 6 10 14 0 8 7 16 15 20 8 3
15 14 15 25 0 10 7 21 15 25 8 3 15 12 15 21 0 8 5 15 10 15 6 0 10 9 10 19 0
10 7 21 15 25 8 3 15 17 15 31 0 16 6 25 15 25 9 0 15 9 15 25 0 14 5 25 10
25 6 0 10 7 10 15 0 8 7 15 15 15 9 0 15 9 15 25 0 16 6 25 15 25 8 0 15 7 15
15 0 8 5 15 10 15 6 0 10 11 10 25 0 16 6 25 15 25 8 0 15 7 15 15 0 8 4 15
10 15 5 0 12 11 16 25 3 14 10 25 15 25 5 0 9 7 9 15 0 8 4 15 10 15 5 0 13
12 16 27 7 26 13 36 42 68 6 7 12 18 12 24 0 6 5 11 10 11 6 0 10 6 10 14 0 8
6 21 14 28 7 8 17 24 21 37 8 26 60 81 75 81 6 0 10 5 10 11 0 6 6 17 14 25 8
8 19 14 25 14 6 0 11 6 11 14 0 10 17 17 55 21 30 4 55 11 55 16 0 5 11 9 25
9 14 0 25 5 25 10 0 6 25 10 55 10 30 0 55 -4 55 -10z"/>
<path d="M8260 13570 c0 -22 11 -41 40 -70 22 -22 40 -42 40 -45 0 -7 19 -31
43 -53 9 -9 17 -20 17 -24 0 -12 56 -68 68 -68 6 0 12 -6 14 -12 4 -10 182
-14 840 -16 l834 -2 27 23 c15 12 27 30 27 39 0 9 7 18 15 22 8 3 15 16 15 28
0 13 9 30 20 38 10 8 22 27 25 42 4 15 11 28 16 28 5 0 11 11 15 25 3 14 10
25 15 25 5 0 9 11 9 25 l0 25 -1040 0 -1040 0 0 -30z"/>
<path d="M11195 13580 c-3 -11 -11 -20 -16 -20 -5 0 -9 -7 -9 -15 0 -9 -7 -18
-15 -21 -8 -4 -15 -15 -15 -25 0 -10 -4 -19 -10 -19 -5 0 -10 -7 -10 -15 0 -9
-7 -18 -15 -21 -8 -4 -15 -15 -15 -25 0 -11 -7 -22 -15 -25 -8 -4 -15 -12 -15
-20 0 -8 -4 -14 -10 -14 -5 0 -10 -16 -10 -35 0 -28 5 -36 23 -40 12 -3 184
-5 381 -3 277 2 360 6 364 16 2 6 14 12 27 12 26 0 55 24 55 46 0 8 4 14 10
14 5 0 12 11 16 25 4 16 13 25 25 25 12 0 21 9 25 25 3 14 12 25 20 25 8 0 14
5 14 11 0 14 25 39 39 39 6 0 11 18 11 40 l0 40 -424 0 c-416 0 -425 0 -431
-20z"/>
<path d="M9170 12580 c0 -5 -11 -10 -24 -10 -29 0 -44 -39 -21 -56 8 -6 15
-14 15 -18 0 -8 18 -31 43 -54 9 -9 17 -20 17 -25 0 -4 11 -19 25 -33 14 -14
25 -29 25 -35 0 -5 11 -20 25 -33 14 -13 25 -28 25 -35 0 -6 7 -11 15 -11 8 0
15 -7 15 -15 0 -8 7 -15 15 -15 8 0 15 -9 15 -19 0 -11 9 -23 20 -26 11 -3 20
-13 20 -20 0 -8 14 -28 30 -45 17 -17 30 -33 30 -36 0 -6 20 -31 43 -52 9 -9
17 -20 17 -25 0 -12 27 -37 39 -37 6 0 11 -7 11 -15 0 -8 7 -15 15 -15 8 0 15
-7 15 -15 0 -8 5 -15 10 -15 6 0 10 -9 10 -19 0 -10 7 -21 15 -25 8 -3 15 -12
15 -21 0 -8 5 -15 11 -15 11 0 39 -25 39 -35 0 -4 14 -20 30 -37 17 -16 30
-34 30 -39 0 -5 23 -32 50 -59 28 -27 50 -54 50 -60 0 -5 4 -10 10 -10 5 0 12
-11 16 -25 3 -14 12 -25 20 -25 8 0 14 -5 14 -10 0 -6 11 -22 25 -36 14 -14
25 -29 25 -35 0 -5 11 -20 25 -33 14 -13 25 -28 25 -35 0 -6 7 -11 15 -11 8 0
15 -7 15 -15 0 -8 4 -15 9 -15 5 0 13 -9 16 -20 3 -11 17 -23 31 -26 13 -3 24
-10 24 -15 0 -5 7 -9 15 -9 8 0 15 5 15 10 0 6 11 10 25 10 16 0 25 6 25 15 0
8 7 15 15 15 8 0 15 7 15 15 0 8 5 15 10 15 6 0 10 7 10 15 0 8 7 15 15 15 8
0 15 9 15 20 0 11 7 20 15 20 8 0 15 7 15 15 0 8 5 15 10 15 6 0 10 7 10 15 0
8 4 15 10 15 5 0 12 11 16 25 3 14 12 25 20 25 8 0 14 6 14 13 0 7 11 21 25
31 14 10 25 23 25 28 0 9 15 30 38 51 51 48 92 93 92 101 0 3 14 19 30 36 17
17 30 37 30 45 0 8 5 15 10 15 6 0 10 7 10 15 0 8 5 15 11 15 14 0 39 25 39
39 0 6 7 11 15 11 8 0 15 5 15 11 0 6 14 24 30 41 17 16 30 35 30 41 0 7 11
21 25 31 14 10 25 23 25 28 0 5 6 16 13 23 29 33 37 45 37 55 0 5 7 10 15 10
8 0 15 7 15 15 0 8 7 15 15 15 8 0 15 5 15 11 0 7 8 19 19 28 10 9 21 26 25
39 4 12 14 22 22 22 8 0 14 7 14 15 0 8 5 15 10 15 6 0 10 5 10 11 0 6 14 24
30 41 17 16 30 34 30 39 0 12 58 69 70 69 6 0 10 12 10 26 0 17 -6 28 -20 31
-11 3 -20 9 -20 14 0 5 -411 9 -960 9 -633 0 -960 -3 -960 -10 0 -5 -11 -10
-25 -10 -14 0 -25 5 -25 10 0 6 -4 10 -10 10 -5 0 -10 -4 -10 -10z"/>
</g>
</svg>
